<svg xmlns="http://www.w3.org/2000/svg" xmlns:xlink="http://www.w3.org/1999/xlink" viewBox="0 0 229.49 195.96"><defs><style>.cls-1{mask:url(#mask);filter:url(#luminosity-noclip-2);}.cls-2{mix-blend-mode:multiply;fill:url(#_ÂÁ_Ï_ÌÌ_È_ËÂÌÚ_12);}.cls-3{isolation:isolate;}.cls-18,.cls-22,.cls-4{fill:#03ea8b;}.cls-17,.cls-24,.cls-29,.cls-5{fill:#798689;}.cls-14,.cls-18,.cls-5{opacity:0.3;}.cls-11,.cls-13,.cls-14,.cls-20,.cls-6,.cls-9{fill:#18262c;}.cls-7{fill:#222f33;}.cls-17,.cls-20,.cls-7,.cls-9{mix-blend-mode:lighten;}.cls-11,.cls-19,.cls-22,.cls-26,.cls-7{opacity:0.5;}.cls-19,.cls-8{fill:#00ff9c;}.cls-17,.cls-9{opacity:0.7;}.cls-10{opacity:0.4;}.cls-12{fill:#424f54;}.cls-13,.cls-15{opacity:0.9;}.cls-16{fill:#21343a;}.cls-21{fill:#7979d3;}.cls-23{opacity:0.1;}.cls-25,.cls-26{fill:#05db83;}.cls-27,.cls-30,.cls-31{fill:#fff;}.cls-28{mask:url(#mask-2);}.cls-29,.cls-31{opacity:0.6;}.cls-30{opacity:0.2;}.cls-32{filter:url(#luminosity-noclip);}</style><filter id="luminosity-noclip" x="180.96" y="-8223.38" width="43.31" height="32766" filterUnits="userSpaceOnUse" color-interpolation-filters="sRGB"><feFlood flood-color="#fff" result="bg"/><feBlend in="SourceGraphic" in2="bg"/></filter><mask id="mask" x="180.96" y="-8223.38" width="43.31" height="32766" maskUnits="userSpaceOnUse"><g class="cls-32"/></mask><linearGradient id="_ÂÁ_Ï_ÌÌ_È_ËÂÌÚ_12" x1="180.96" y1="136.46" x2="224.27" y2="136.46" gradientUnits="userSpaceOnUse"><stop offset="0" stop-color="#4d4d4d"/><stop offset="1" stop-color="#fff"/></linearGradient><filter id="luminosity-noclip-2" x="180.96" y="123.96" width="43.31" height="25" filterUnits="userSpaceOnUse" color-interpolation-filters="sRGB"><feFlood flood-color="#fff" result="bg"/><feBlend in="SourceGraphic" in2="bg"/></filter><mask id="mask-2" x="180.96" y="123.96" width="43.31" height="25" maskUnits="userSpaceOnUse"><g class="cls-1"><path class="cls-2" d="M200.11,148.42,181.89,137.9c-1.38-.8-1.21-2.19.39-3.11l17.44-10.07a6,6,0,0,1,5.4-.23L223.33,135c1.39.8,1.21,2.2-.39,3.12L205.51,148.2A6,6,0,0,1,200.11,148.42Z"/></g></mask></defs><g class="cls-3"><g id="Layer_2" data-name="Layer 2"><g id="_ÎÓÈ_1" data-name="—ÎÓÈ_1"><path class="cls-4" d="M47.87,37a.74.74,0,0,1-.37-1.38L104.55,2.72A.74.74,0,0,1,105.29,4l-57,32.94A.71.71,0,0,1,47.87,37Z"/><path class="cls-4" d="M159.73,35.75a.86.86,0,0,1-.37-.1L104.55,4a.75.75,0,0,1-.27-1,.74.74,0,0,1,1-.27l54.82,31.65a.74.74,0,0,1,.27,1A.77.77,0,0,1,159.73,35.75Z"/><path class="cls-5" d="M72.62,184.31l-55.47-32c-2.07-1.19-1.81-3.28.58-4.67L124.06,86.23c2.39-1.39,6-1.54,8.09-.34l55.47,32c2.08,1.2,1.82,3.29-.58,4.67L80.71,184C78.32,185.36,74.7,185.51,72.62,184.31Z"/><polygon class="cls-5" points="179.65 104.32 164.56 95.61 179.65 86.89 194.74 95.61 179.65 104.32"/><path class="cls-6" d="M200.65,96.71l-8,1.4L136.14,65.5c-2.35-1.36-6.46-1.18-9.17.38L18.22,128.67l-14.1,2.47v4.59h0a2.69,2.69,0,0,0,1.58,2.35l62.92,36.33c2.35,1.36,6.46,1.19,9.18-.38l120.6-69.63c1.47-.85,2.23-2,2.24-3h0Z"/><path class="cls-7" d="M200.65,96.71l-8,1.4L136.14,65.5c-2.35-1.36-6.46-1.18-9.17.38L18.22,128.67l-14.1,2.47v4.59h0a2.69,2.69,0,0,0,1.58,2.35l62.92,36.33c2.35,1.36,6.46,1.19,9.18-.38l120.6-69.63c1.47-.85,2.23-2,2.24-3h0Z"/><path class="cls-8" d="M198.41,101.56,77.81,171.19c-2.72,1.57-6.83,1.74-9.18.38L5.71,135.24a2.68,2.68,0,0,1-1.58-2.35h0v1.2h0a2.71,2.71,0,0,0,1.58,2.36l62.92,36.33c2.35,1.35,6.46,1.18,9.18-.38l120.6-69.63c1.47-.86,2.23-2,2.24-3h0v-1.2h0C200.64,99.62,199.88,100.71,198.41,101.56Z"/><path class="cls-9" d="M68.63,169.72,5.71,133.39c-2.35-1.35-2.06-3.72.66-5.29L127,58.47c2.71-1.57,6.82-1.74,9.17-.38l62.92,36.33c2.36,1.35,2.06,3.73-.65,5.29L77.81,169.34C75.09,170.91,71,171.08,68.63,169.72Z"/><g class="cls-10"><path class="cls-11" d="M200.65,95.75l-8,1.4L136.14,64.54c-2.35-1.35-6.46-1.18-9.17.38L18.22,127.71l-14.1,2.47V131h0a2.68,2.68,0,0,0,1.58,2.35l62.92,36.33c2.35,1.36,6.46,1.19,9.18-.38l120.6-69.63c1.47-.85,2.23-1.94,2.24-3h0Z"/><path class="cls-9" d="M68.63,168.77,5.71,132.44c-2.35-1.36-2.06-3.73.66-5.3L127,57.51c2.71-1.57,6.82-1.74,9.17-.38l62.92,36.33c2.36,1.36,2.06,3.73-.65,5.3L77.81,168.38C75.09,170,71,170.12,68.63,168.77Z"/><path class="cls-6" d="M68.63,168.77,5.71,132.44c-2.35-1.36-2.06-3.73.66-5.3L127,57.51c2.71-1.57,6.82-1.74,9.17-.38l62.92,36.33c2.36,1.36,2.06,3.73-.65,5.3L77.81,168.38C75.09,170,71,170.12,68.63,168.77Z"/></g><path class="cls-12" d="M39.41,155.27h0c0,.56-.34.81-.76.57L33.72,153a1.79,1.79,0,0,1-.76-1.44h0c0-.56.34-.81.76-.57l4.93,2.85A1.79,1.79,0,0,1,39.41,155.27Z"/><path class="cls-12" d="M53.26,163.27c0,.45-.32.63-.71.41a1.57,1.57,0,0,1-.7-1.23c0-.45.31-.63.7-.4A1.55,1.55,0,0,1,53.26,163.27Z"/><path class="cls-12" d="M56,164.88c0,.45-.31.63-.7.4a1.55,1.55,0,0,1-.71-1.22c0-.45.32-.63.71-.41A1.57,1.57,0,0,1,56,164.88Z"/><path class="cls-12" d="M58.83,166.48c0,.45-.32.64-.71.41a1.54,1.54,0,0,1-.7-1.22c0-.45.31-.63.7-.41A1.57,1.57,0,0,1,58.83,166.48Z"/><path class="cls-12" d="M15,141.15c0,.45-.32.63-.7.41a1.57,1.57,0,0,1-.71-1.22c0-.45.32-.64.71-.41A1.57,1.57,0,0,1,15,141.15Z"/><path class="cls-12" d="M17.74,142.76c0,.45-.32.63-.71.41a1.59,1.59,0,0,1-.71-1.23c0-.45.32-.63.71-.4A1.55,1.55,0,0,1,17.74,142.76Z"/><path class="cls-12" d="M20.52,144.37c0,.45-.32.63-.71.4a1.54,1.54,0,0,1-.7-1.22c0-.45.31-.63.7-.41A1.59,1.59,0,0,1,20.52,144.37Z"/><path class="cls-11" d="M68.63,168.77,5.71,132.44c-2.35-1.36-2.06-3.73.66-5.3L127,57.51c2.71-1.57,6.82-1.74,9.17-.38l62.92,36.33c2.36,1.36,2.06,3.73-.65,5.3L77.81,168.38C75.09,170,71,170.12,68.63,168.77Z"/><path class="cls-11" d="M68.63,168.77,5.71,132.44c-2.35-1.36-2.06-3.73.66-5.3L127,57.51c2.71-1.57,6.82-1.74,9.17-.38l62.92,36.33c2.36,1.36,2.06,3.73-.65,5.3L77.81,168.38C75.09,170,71,170.12,68.63,168.77Z"/><path class="cls-13" d="M69.72,168.72,6.8,132.39c-2.55-1.54-3-3.17.66-5.29l120.6-69.63a10.13,10.13,0,0,1,4.22-1.25A10.55,10.55,0,0,0,127,57.51L6.37,127.14c-2.72,1.57-3,3.94-.66,5.3l62.92,36.33a8.84,8.84,0,0,0,5,.87A8.07,8.07,0,0,1,69.72,168.72Z"/><polygon class="cls-5" points="31.44 105.15 58.11 89.75 35.51 76.69 8.52 91.92 31.44 105.15"/><polygon class="cls-14" points="164.43 73.46 153.35 79.86 180.03 95.26 191.1 88.86 164.43 73.46"/><polygon class="cls-6" points="31.44 85.97 0 67.82 31.43 49.67 62.87 67.82 31.44 85.97"/><polygon class="cls-6" points="31.44 80.75 0 62.6 31.43 44.45 62.87 62.6 31.44 80.75"/><g class="cls-15"><polygon class="cls-6" points="31.44 48.51 7.17 34.49 31.43 20.48 55.71 34.49 31.44 48.51"/><polygon class="cls-6" points="55.71 34.49 55.71 62.6 31.44 76.61 31.44 48.51 55.71 34.49"/><polygon class="cls-6" points="7.17 34.49 7.17 62.6 31.43 76.61 31.43 48.51 7.17 34.49"/></g><polygon class="cls-9" points="31.44 76.61 7.17 62.6 31.43 48.58 55.71 62.6 31.44 76.61"/><polygon class="cls-16" points="62.87 62.6 62.87 67.82 31.44 85.97 31.44 80.75 62.87 62.6"/><polygon class="cls-6" points="0 62.6 0 67.82 31.44 85.97 31.44 80.75 0 62.6"/><polygon class="cls-17" points="0 62.6 0 67.82 31.44 85.97 31.44 80.75 0 62.6"/><polygon class="cls-6" points="31.44 42.32 0 24.17 31.43 6.02 62.87 24.17 31.44 42.32"/><polygon class="cls-6" points="0 18.95 0 24.17 31.44 42.32 31.44 37.1 0 18.95"/><polygon class="cls-18" points="31.44 42.32 31.44 80.75 0 62.6 0 24.17 31.44 42.32"/><polygon class="cls-18" points="7.17 28.31 7.17 62.6 31.44 76.61 55.71 62.6 55.71 28.31 31.44 42.32 7.17 28.31"/><polygon class="cls-18" points="31.44 42.32 31.44 76.61 7.17 62.6 7.17 28.31 31.44 42.32"/><polygon class="cls-19" points="0 24.17 0 62.6 31.44 80.75 62.87 62.6 62.87 24.17 31.44 42.32 0 24.17"/><polygon class="cls-6" points="31.44 37.1 0 18.95 31.43 0.8 62.87 18.95 31.44 37.1"/><polygon class="cls-9" points="31.44 37.1 0 18.95 31.43 0.8 62.87 18.95 31.44 37.1"/><polygon class="cls-16" points="62.87 18.95 62.87 24.17 31.44 42.32 31.44 37.1 62.87 18.95"/><polygon class="cls-17" points="0 18.95 0 24.17 31.44 42.32 31.44 37.1 0 18.95"/><polygon class="cls-20" points="0.74 18.95 31.81 1.01 31.43 0.8 0 18.95 31.44 37.1 31.81 36.88 0.74 18.95"/><polygon class="cls-6" points="31.44 35.38 2.88 18.89 31.43 5.9 59.99 18.89 31.44 35.38"/><polygon class="cls-6" points="2.88 17.64 2.88 18.89 31.44 35.38 31.44 34.13 2.88 17.64"/><polygon class="cls-6" points="31.44 34.13 2.88 17.64 31.43 1.16 59.99 17.64 31.44 34.13"/><polygon class="cls-9" points="31.44 34.13 2.88 17.64 31.43 1.16 59.99 17.64 31.44 34.13"/><polygon class="cls-16" points="59.99 17.64 59.99 18.89 31.44 35.38 31.44 34.13 59.99 17.64"/><polygon class="cls-17" points="2.88 17.64 2.88 18.89 31.44 35.38 31.44 34.13 2.88 17.64"/><polygon class="cls-20" points="3.55 17.64 31.77 1.35 31.43 1.16 2.88 17.64 31.44 34.13 31.77 33.94 3.55 17.64"/><polygon class="cls-4" points="12.02 18.27 10.95 17.64 31.43 5.81 32.51 6.44 12.02 18.27"/><polygon class="cls-4" points="14.18 19.51 13.1 18.89 33.59 7.06 34.67 7.68 14.18 19.51"/><polygon class="cls-4" points="16.34 20.76 15.26 20.13 35.75 8.3 36.83 8.93 16.34 20.76"/><polygon class="cls-4" points="18.49 22 17.42 21.38 37.91 9.55 38.98 10.17 18.49 22"/><polygon class="cls-4" points="20.65 23.25 19.57 22.62 40.06 10.79 41.14 11.42 20.65 23.25"/><polygon class="cls-4" points="22.81 24.49 21.73 23.87 42.22 12.04 43.3 12.66 22.81 24.49"/><polygon class="cls-4" points="24.96 25.74 23.89 25.11 44.38 13.29 45.45 13.91 24.96 25.74"/><polygon class="cls-4" points="27.12 26.98 26.04 26.36 46.53 14.53 47.61 15.15 27.12 26.98"/><polygon class="cls-4" points="29.28 28.23 28.2 27.61 48.69 15.78 49.77 16.4 29.28 28.23"/><polygon class="cls-4" points="31.44 29.47 30.36 28.85 50.85 17.02 51.93 17.64 31.44 29.47"/><polygon class="cls-8" points="31.43 5.81 32.51 6.44 31.43 7.06 31.43 5.81"/><polygon class="cls-8" points="33.59 7.06 34.67 7.68 33.59 8.3 33.59 7.06"/><polygon class="cls-8" points="35.75 8.3 36.83 8.93 35.75 9.55 35.75 8.3"/><polygon class="cls-8" points="37.91 9.55 38.98 10.17 37.91 10.79 37.91 9.55"/><polygon class="cls-8" points="40.06 10.79 41.14 11.42 40.06 12.04 40.06 10.79"/><polygon class="cls-8" points="42.22 12.04 43.3 12.66 42.22 13.29 42.22 12.04"/><polygon class="cls-8" points="44.38 13.29 45.45 13.91 44.38 14.53 44.38 13.29"/><polygon class="cls-8" points="46.53 14.53 47.61 15.15 46.53 15.78 46.53 14.53"/><polygon class="cls-8" points="48.69 15.78 49.77 16.4 48.69 17.02 48.69 15.78"/><polygon class="cls-8" points="50.85 17.02 51.93 17.64 50.85 18.27 50.85 17.02"/><g class="cls-10"><polygon class="cls-21" points="12.02 18.27 10.95 17.64 31.43 5.81 32.51 6.44 12.02 18.27"/><polygon class="cls-21" points="14.18 19.51 13.1 18.89 33.59 7.06 34.67 7.68 14.18 19.51"/><polygon class="cls-21" points="16.34 20.76 15.26 20.13 35.75 8.3 36.83 8.93 16.34 20.76"/><polygon class="cls-21" points="18.49 22 17.42 21.38 37.91 9.55 38.98 10.17 18.49 22"/><polygon class="cls-21" points="20.65 23.25 19.57 22.62 40.06 10.79 41.14 11.42 20.65 23.25"/><polygon class="cls-21" points="22.81 24.49 21.73 23.87 42.22 12.04 43.3 12.66 22.81 24.49"/><polygon class="cls-21" points="24.96 25.74 23.89 25.11 44.38 13.29 45.45 13.91 24.96 25.74"/><polygon class="cls-21" points="27.12 26.98 26.04 26.36 46.53 14.53 47.61 15.15 27.12 26.98"/><polygon class="cls-21" points="29.28 28.23 28.2 27.61 48.69 15.78 49.77 16.4 29.28 28.23"/><polygon class="cls-21" points="31.44 29.47 30.36 28.85 50.85 17.02 51.93 17.64 31.44 29.47"/></g><polygon class="cls-22" points="0 24.17 0 62.6 0.43 62.85 0.43 24.42 0 24.17"/><polygon class="cls-22" points="62.87 24.17 62.87 62.6 62.44 62.85 62.44 24.42 62.87 24.17"/><polygon class="cls-22" points="31.44 42.32 31.44 42.32 30.69 41.89 30.69 80.32 31.44 80.75 31.44 80.75 31.44 80.75 31.44 80.75 31.44 80.75 32.18 80.32 32.18 41.89 31.44 42.32"/><polygon class="cls-19" points="0.43 58.81 29.02 40.92 8.64 29.16 0.43 33.64 0.43 58.81"/><polygon class="cls-19" points="6.84 66.55 30.69 52.99 30.69 62.85 14.92 71.21 6.84 66.55"/><g class="cls-23"><polygon class="cls-24" points="1.95 28.9 29.06 44.54 29.06 43.32 1.95 27.68 1.95 28.9"/><polygon class="cls-24" points="1.95 31.77 29.06 47.41 29.06 46.19 1.95 30.55 1.95 31.77"/><polygon class="cls-24" points="1.95 34.64 29.06 50.28 29.06 49.06 1.95 33.42 1.95 34.64"/><polygon class="cls-24" points="1.95 37.51 29.06 53.15 29.06 51.93 1.95 36.29 1.95 37.51"/><polygon class="cls-24" points="1.95 40.38 29.06 56.02 29.06 54.8 1.95 39.16 1.95 40.38"/><polygon class="cls-24" points="1.95 43.25 29.06 58.89 29.06 57.66 1.95 42.03 1.95 43.25"/><polygon class="cls-24" points="1.95 46.12 29.06 61.76 29.06 60.53 1.95 44.9 1.95 46.12"/><polygon class="cls-24" points="1.95 48.99 29.06 64.63 29.06 63.41 1.95 47.77 1.95 48.99"/><polygon class="cls-24" points="1.95 51.86 29.06 67.5 29.06 66.28 1.95 50.64 1.95 51.86"/><polygon class="cls-24" points="1.95 54.73 29.06 70.37 29.06 69.14 1.95 53.51 1.95 54.73"/><polygon class="cls-24" points="1.95 57.6 29.06 73.24 29.06 72.02 1.95 56.38 1.95 57.6"/><polygon class="cls-24" points="1.95 60.47 29.06 76.11 29.06 74.89 1.95 59.24 1.95 60.47"/></g><polygon class="cls-6" points="179.65 85.17 148.22 67.02 179.65 48.87 211.09 67.02 179.65 85.17"/><polygon class="cls-6" points="179.65 79.94 148.22 61.8 179.65 43.65 211.09 61.8 179.65 79.94"/><g class="cls-15"><polygon class="cls-6" points="179.65 47.7 155.38 33.69 179.65 19.68 203.92 33.69 179.65 47.7"/><polygon class="cls-6" points="203.92 33.69 203.93 61.8 179.65 75.81 179.65 47.7 203.92 33.69"/><polygon class="cls-6" points="155.38 33.69 155.38 61.8 179.65 75.81 179.65 47.7 155.38 33.69"/></g><polygon class="cls-9" points="179.65 75.81 155.38 61.8 179.65 47.78 203.93 61.8 179.65 75.81"/><polygon class="cls-16" points="211.09 61.8 211.09 67.02 179.65 85.17 179.65 79.94 211.09 61.8"/><polygon class="cls-6" points="148.22 61.8 148.22 67.02 179.65 85.17 179.65 79.94 148.22 61.8"/><polygon class="cls-17" points="148.22 61.8 148.22 67.02 179.65 85.17 179.65 79.94 148.22 61.8"/><polygon class="cls-6" points="179.65 41.52 148.22 23.37 179.65 5.22 211.09 23.37 179.65 41.52"/><polygon class="cls-6" points="148.22 18.15 148.22 23.37 179.65 41.52 179.65 36.3 148.22 18.15"/><polygon class="cls-18" points="179.65 41.52 179.65 79.94 148.22 61.8 148.22 23.37 179.65 41.52"/><polygon class="cls-18" points="155.38 27.51 155.38 61.8 179.65 75.81 203.93 61.8 203.93 27.51 179.65 41.52 155.38 27.51"/><polygon class="cls-18" points="179.65 41.52 179.65 75.81 155.38 61.8 155.38 27.51 179.65 41.52"/><polygon class="cls-19" points="148.22 23.37 148.22 61.8 179.65 79.94 211.09 61.8 211.09 23.37 179.65 41.52 148.22 23.37"/><polygon class="cls-6" points="179.65 36.3 148.22 18.15 179.65 0 211.09 18.15 179.65 36.3"/><polygon class="cls-9" points="179.65 36.3 148.22 18.15 179.65 0 211.09 18.15 179.65 36.3"/><polygon class="cls-16" points="211.09 18.15 211.09 23.37 179.65 41.52 179.65 36.3 211.09 18.15"/><polygon class="cls-17" points="148.22 18.15 148.22 23.37 179.65 41.52 179.65 36.3 148.22 18.15"/><polygon class="cls-20" points="148.96 18.15 180.03 0.21 179.65 0 148.22 18.15 179.65 36.3 180.03 36.08 148.96 18.15"/><polygon class="cls-6" points="179.65 34.58 151.1 18.09 179.65 5.1 208.21 18.09 179.65 34.58"/><polygon class="cls-6" points="151.1 16.84 151.1 18.09 179.65 34.58 179.65 33.33 151.1 16.84"/><polygon class="cls-6" points="179.65 33.33 151.1 16.84 179.65 0.35 208.21 16.84 179.65 33.33"/><polygon class="cls-9" points="179.65 33.33 151.1 16.84 179.65 0.35 208.21 16.84 179.65 33.33"/><polygon class="cls-16" points="208.21 16.84 208.21 18.09 179.65 34.58 179.65 33.33 208.21 16.84"/><polygon class="cls-17" points="151.1 16.84 151.1 18.09 179.65 34.58 179.65 33.33 151.1 16.84"/><polygon class="cls-20" points="151.77 16.84 179.99 0.55 179.65 0.35 151.1 16.84 179.65 33.33 179.99 33.13 151.77 16.84"/><polygon class="cls-4" points="160.24 17.46 159.16 16.84 179.65 5.01 180.73 5.63 160.24 17.46"/><polygon class="cls-4" points="162.4 18.71 161.32 18.09 181.81 6.26 182.89 6.88 162.4 18.71"/><polygon class="cls-4" points="164.56 19.95 163.48 19.33 183.97 7.5 185.05 8.13 164.56 19.95"/><polygon class="cls-4" points="166.71 21.2 165.63 20.58 186.12 8.75 187.2 9.37 166.71 21.2"/><polygon class="cls-4" points="168.87 22.45 167.79 21.82 188.28 9.99 189.36 10.62 168.87 22.45"/><polygon class="cls-4" points="171.03 23.69 169.95 23.07 190.44 11.24 191.52 11.86 171.03 23.69"/><polygon class="cls-4" points="173.18 24.94 172.1 24.31 192.59 12.48 193.67 13.11 173.18 24.94"/><polygon class="cls-4" points="175.34 26.18 174.26 25.56 194.75 13.73 195.83 14.35 175.34 26.18"/><polygon class="cls-4" points="177.5 27.43 176.42 26.8 196.91 14.97 197.99 15.6 177.5 27.43"/><polygon class="cls-4" points="179.65 28.67 178.58 28.05 199.07 16.22 200.14 16.84 179.65 28.67"/><polygon class="cls-8" points="179.65 5.01 180.73 5.63 179.65 6.26 179.65 5.01"/><polygon class="cls-8" points="181.81 6.26 182.89 6.88 181.81 7.5 181.81 6.26"/><polygon class="cls-8" points="183.97 7.5 185.05 8.13 183.97 8.75 183.97 7.5"/><polygon class="cls-8" points="186.12 8.75 187.2 9.37 186.12 9.99 186.12 8.75"/><polygon class="cls-8" points="188.28 9.99 189.36 10.62 188.28 11.24 188.28 9.99"/><polygon class="cls-8" points="190.44 11.24 191.52 11.86 190.44 12.48 190.44 11.24"/><polygon class="cls-8" points="192.59 12.48 193.67 13.11 192.59 13.73 192.59 12.48"/><polygon class="cls-8" points="194.75 13.73 195.83 14.35 194.75 14.97 194.75 13.73"/><polygon class="cls-8" points="196.91 14.97 197.99 15.6 196.91 16.22 196.91 14.97"/><polygon class="cls-8" points="199.07 16.22 200.14 16.84 199.07 17.46 199.07 16.22"/><g class="cls-10"><polygon class="cls-21" points="160.24 17.46 159.16 16.84 179.65 5.01 180.73 5.63 160.24 17.46"/><polygon class="cls-21" points="162.4 18.71 161.32 18.09 181.81 6.26 182.89 6.88 162.4 18.71"/><polygon class="cls-21" points="164.56 19.95 163.48 19.33 183.97 7.5 185.05 8.13 164.56 19.95"/><polygon class="cls-21" points="166.71 21.2 165.63 20.58 186.12 8.75 187.2 9.37 166.71 21.2"/><polygon class="cls-21" points="168.87 22.45 167.79 21.82 188.28 9.99 189.36 10.62 168.87 22.45"/><polygon class="cls-21" points="171.03 23.69 169.95 23.07 190.44 11.24 191.52 11.86 171.03 23.69"/><polygon class="cls-21" points="173.18 24.94 172.1 24.31 192.59 12.48 193.67 13.11 173.18 24.94"/><polygon class="cls-21" points="175.34 26.18 174.26 25.56 194.75 13.73 195.83 14.35 175.34 26.18"/><polygon class="cls-21" points="177.5 27.43 176.42 26.8 196.91 14.97 197.99 15.6 177.5 27.43"/><polygon class="cls-21" points="179.65 28.67 178.58 28.05 199.07 16.22 200.14 16.84 179.65 28.67"/></g><polygon class="cls-22" points="148.22 23.37 148.22 61.8 148.65 62.05 148.65 23.62 148.22 23.37"/><polygon class="cls-22" points="211.09 23.37 211.09 61.8 210.66 62.05 210.66 23.62 211.09 23.37"/><polygon class="cls-22" points="179.65 41.52 179.65 41.52 178.91 41.09 178.91 79.52 179.65 79.94 179.65 79.94 179.65 79.94 179.65 79.94 179.65 79.94 180.4 79.52 180.4 41.09 179.65 41.52"/><polygon class="cls-19" points="148.65 58.01 177.23 40.12 156.85 28.36 148.65 32.84 148.65 58.01"/><polygon class="cls-19" points="155.06 65.75 178.91 52.19 178.91 62.05 163.13 70.41 155.06 65.75"/><g class="cls-23"><polygon class="cls-24" points="150.17 28.1 177.28 43.74 177.28 42.52 150.17 26.88 150.17 28.1"/><polygon class="cls-24" points="150.17 30.97 177.28 46.61 177.28 45.38 150.17 29.75 150.17 30.97"/><polygon class="cls-24" points="150.17 33.84 177.28 49.48 177.28 48.26 150.17 32.62 150.17 33.84"/><polygon class="cls-24" points="150.17 36.71 177.28 52.35 177.28 51.13 150.17 35.49 150.17 36.71"/><polygon class="cls-24" points="150.17 39.58 177.28 55.22 177.28 53.99 150.17 38.36 150.17 39.58"/><polygon class="cls-24" points="150.17 42.45 177.28 58.09 177.28 56.87 150.17 41.23 150.17 42.45"/><polygon class="cls-24" points="150.17 45.32 177.28 60.96 177.28 59.73 150.17 44.09 150.17 45.32"/><polygon class="cls-24" points="150.17 48.19 177.28 63.83 177.28 62.6 150.17 46.97 150.17 48.19"/><polygon class="cls-24" points="150.17 51.06 177.28 66.7 177.28 65.47 150.17 49.84 150.17 51.06"/><polygon class="cls-24" points="150.17 53.93 177.28 69.57 177.28 68.34 150.17 52.7 150.17 53.93"/><polygon class="cls-24" points="150.17 56.8 177.28 72.44 177.28 71.21 150.17 55.58 150.17 56.8"/><polygon class="cls-24" points="150.17 59.67 177.28 75.31 177.28 74.08 150.17 58.44 150.17 59.67"/></g><path class="cls-25" d="M34.38,43.73a1.15,1.15,0,0,1-.53.91c-.29.17-.53,0-.53-.3a1.18,1.18,0,0,1,.53-.92C34.15,43.25,34.38,43.39,34.38,43.73Z"/><path class="cls-25" d="M36.13,42.72a1.18,1.18,0,0,1-.53.92c-.3.17-.53,0-.53-.31a1.15,1.15,0,0,1,.53-.92C35.89,42.25,36.13,42.38,36.13,42.72Z"/><path class="cls-25" d="M37.87,41.71a1.18,1.18,0,0,1-.53.92c-.29.17-.53,0-.53-.3a1.18,1.18,0,0,1,.53-.92C37.63,41.24,37.87,41.38,37.87,41.71Z"/><polygon class="cls-25" points="52.01 34.16 38.67 41.86 38.67 40.64 52.01 32.94 52.01 34.16"/><path class="cls-25" d="M34.38,46.6a1.15,1.15,0,0,1-.53.91c-.29.17-.53,0-.53-.3a1.18,1.18,0,0,1,.53-.92C34.15,46.12,34.38,46.26,34.38,46.6Z"/><path class="cls-25" d="M36.13,45.59a1.18,1.18,0,0,1-.53.92c-.3.17-.53,0-.53-.31a1.15,1.15,0,0,1,.53-.92C35.89,45.12,36.13,45.25,36.13,45.59Z"/><path class="cls-25" d="M37.87,44.58a1.18,1.18,0,0,1-.53.92c-.29.17-.53,0-.53-.3a1.18,1.18,0,0,1,.53-.92C37.63,44.11,37.87,44.25,37.87,44.58Z"/><polygon class="cls-25" points="52.01 37.03 38.67 44.73 38.67 43.51 52.01 35.81 52.01 37.03"/><path class="cls-25" d="M34.38,49.47a1.15,1.15,0,0,1-.53.91c-.29.17-.53,0-.53-.3a1.18,1.18,0,0,1,.53-.92C34.15,49,34.38,49.13,34.38,49.47Z"/><path class="cls-25" d="M36.13,48.46a1.18,1.18,0,0,1-.53.92c-.3.17-.53,0-.53-.31a1.15,1.15,0,0,1,.53-.92C35.89,48,36.13,48.12,36.13,48.46Z"/><path class="cls-25" d="M37.87,47.45a1.18,1.18,0,0,1-.53.92c-.29.17-.53,0-.53-.3a1.18,1.18,0,0,1,.53-.92C37.63,47,37.87,47.12,37.87,47.45Z"/><polygon class="cls-25" points="52.01 39.9 38.67 47.6 38.67 46.38 52.01 38.68 52.01 39.9"/><path class="cls-25" d="M34.38,52.34a1.15,1.15,0,0,1-.53.91c-.29.17-.53,0-.53-.3a1.18,1.18,0,0,1,.53-.92C34.15,51.86,34.38,52,34.38,52.34Z"/><path class="cls-25" d="M36.13,51.33a1.18,1.18,0,0,1-.53.92c-.3.17-.53,0-.53-.31A1.15,1.15,0,0,1,35.6,51C35.89,50.86,36.13,51,36.13,51.33Z"/><path class="cls-25" d="M37.87,50.32a1.18,1.18,0,0,1-.53.92c-.29.17-.53,0-.53-.3a1.18,1.18,0,0,1,.53-.92C37.63,49.85,37.87,50,37.87,50.32Z"/><polygon class="cls-25" points="52.01 42.77 38.67 50.47 38.67 49.25 52.01 41.55 52.01 42.77"/><path class="cls-25" d="M34.38,55.21a1.15,1.15,0,0,1-.53.91c-.29.17-.53,0-.53-.3a1.18,1.18,0,0,1,.53-.92C34.15,54.73,34.38,54.87,34.38,55.21Z"/><path class="cls-25" d="M36.13,54.2a1.18,1.18,0,0,1-.53.92c-.3.17-.53,0-.53-.31a1.15,1.15,0,0,1,.53-.92C35.89,53.73,36.13,53.86,36.13,54.2Z"/><path class="cls-25" d="M37.87,53.19a1.18,1.18,0,0,1-.53.92c-.29.17-.53,0-.53-.3a1.18,1.18,0,0,1,.53-.92C37.63,52.72,37.87,52.86,37.87,53.19Z"/><polygon class="cls-25" points="52.01 45.64 38.67 53.34 38.67 52.12 52.01 44.42 52.01 45.64"/><path class="cls-25" d="M34.38,58.08a1.15,1.15,0,0,1-.53.91c-.29.17-.53,0-.53-.3a1.18,1.18,0,0,1,.53-.92C34.15,57.6,34.38,57.74,34.38,58.08Z"/><path class="cls-25" d="M36.13,57.07a1.18,1.18,0,0,1-.53.92c-.3.17-.53,0-.53-.31a1.15,1.15,0,0,1,.53-.92C35.89,56.59,36.13,56.73,36.13,57.07Z"/><path class="cls-25" d="M37.87,56.06a1.18,1.18,0,0,1-.53.92c-.29.17-.53,0-.53-.31a1.18,1.18,0,0,1,.53-.91C37.63,55.59,37.87,55.73,37.87,56.06Z"/><polygon class="cls-25" points="52.01 48.51 38.67 56.21 38.67 54.99 52.01 47.29 52.01 48.51"/><path class="cls-25" d="M34.38,60.94a1.15,1.15,0,0,1-.53.92c-.29.17-.53,0-.53-.3a1.18,1.18,0,0,1,.53-.92C34.15,60.47,34.38,60.61,34.38,60.94Z"/><path class="cls-25" d="M36.13,59.94a1.18,1.18,0,0,1-.53.92c-.3.16-.53,0-.53-.31a1.15,1.15,0,0,1,.53-.92C35.89,59.46,36.13,59.6,36.13,59.94Z"/><path class="cls-25" d="M37.87,58.93a1.18,1.18,0,0,1-.53.92c-.29.17-.53,0-.53-.31a1.18,1.18,0,0,1,.53-.91C37.63,58.46,37.87,58.6,37.87,58.93Z"/><polygon class="cls-25" points="52.01 51.38 38.67 59.08 38.67 57.86 52.01 50.16 52.01 51.38"/><path class="cls-25" d="M34.38,63.81a1.15,1.15,0,0,1-.53.92c-.29.17-.53,0-.53-.3a1.18,1.18,0,0,1,.53-.92C34.15,63.34,34.38,63.48,34.38,63.81Z"/><path class="cls-25" d="M36.13,62.81a1.18,1.18,0,0,1-.53.92c-.3.16-.53,0-.53-.31a1.15,1.15,0,0,1,.53-.92C35.89,62.33,36.13,62.47,36.13,62.81Z"/><path class="cls-25" d="M37.87,61.8a1.18,1.18,0,0,1-.53.92c-.29.17-.53,0-.53-.31a1.18,1.18,0,0,1,.53-.91C37.63,61.33,37.87,61.47,37.87,61.8Z"/><polygon class="cls-25" points="52.01 54.25 38.67 61.95 38.67 60.73 52.01 53.03 52.01 54.25"/><path class="cls-25" d="M34.38,66.68a1.15,1.15,0,0,1-.53.92c-.29.17-.53,0-.53-.3a1.18,1.18,0,0,1,.53-.92C34.15,66.21,34.38,66.35,34.38,66.68Z"/><path class="cls-25" d="M36.13,65.68a1.18,1.18,0,0,1-.53.92c-.3.16-.53,0-.53-.31a1.15,1.15,0,0,1,.53-.92C35.89,65.2,36.13,65.34,36.13,65.68Z"/><path class="cls-25" d="M37.87,64.67a1.18,1.18,0,0,1-.53.92c-.29.17-.53,0-.53-.31a1.18,1.18,0,0,1,.53-.91C37.63,64.2,37.87,64.34,37.87,64.67Z"/><polygon class="cls-25" points="52.01 57.12 38.67 64.82 38.67 63.6 52.01 55.9 52.01 57.12"/><path class="cls-25" d="M34.38,69.55a1.15,1.15,0,0,1-.53.92c-.29.17-.53,0-.53-.3a1.18,1.18,0,0,1,.53-.92C34.15,69.08,34.38,69.22,34.38,69.55Z"/><path class="cls-25" d="M36.13,68.55a1.18,1.18,0,0,1-.53.92c-.3.16-.53,0-.53-.31a1.15,1.15,0,0,1,.53-.92C35.89,68.07,36.13,68.21,36.13,68.55Z"/><path class="cls-25" d="M37.87,67.54a1.18,1.18,0,0,1-.53.92c-.29.17-.53,0-.53-.31a1.18,1.18,0,0,1,.53-.91C37.63,67.07,37.87,67.21,37.87,67.54Z"/><polygon class="cls-25" points="52.01 59.99 38.67 67.69 38.67 66.47 52.01 58.77 52.01 59.99"/><path class="cls-25" d="M34.38,72.42a1.15,1.15,0,0,1-.53.92c-.29.17-.53,0-.53-.3a1.18,1.18,0,0,1,.53-.92C34.15,72,34.38,72.09,34.38,72.42Z"/><path class="cls-25" d="M36.13,71.42a1.18,1.18,0,0,1-.53.92c-.3.16-.53,0-.53-.31a1.15,1.15,0,0,1,.53-.92C35.89,70.94,36.13,71.08,36.13,71.42Z"/><path class="cls-25" d="M37.87,70.41a1.18,1.18,0,0,1-.53.92c-.29.17-.53,0-.53-.31a1.18,1.18,0,0,1,.53-.91C37.63,69.94,37.87,70.07,37.87,70.41Z"/><polygon class="cls-25" points="52.01 62.86 38.67 70.56 38.67 69.34 52.01 61.64 52.01 62.86"/><path class="cls-25" d="M34.38,75.29a1.15,1.15,0,0,1-.53.92c-.29.17-.53,0-.53-.3a1.18,1.18,0,0,1,.53-.92C34.15,74.82,34.38,75,34.38,75.29Z"/><path class="cls-25" d="M36.13,74.29a1.18,1.18,0,0,1-.53.92c-.3.16-.53,0-.53-.31A1.15,1.15,0,0,1,35.6,74C35.89,73.81,36.13,74,36.13,74.29Z"/><path class="cls-25" d="M37.87,73.28a1.18,1.18,0,0,1-.53.92c-.29.17-.53,0-.53-.31a1.18,1.18,0,0,1,.53-.91C37.63,72.81,37.87,72.94,37.87,73.28Z"/><polygon class="cls-25" points="52.01 65.73 38.67 73.43 38.67 72.21 52.01 64.51 52.01 65.73"/><polygon class="cls-26" points="61.1 60.53 53.27 65.05 53.27 32.33 61.1 27.81 61.1 60.53"/><path class="cls-4" d="M105.17,85.52a.68.68,0,0,1-.36-.1L47.24,52.19a.76.76,0,0,1-.27-1,.75.75,0,0,1,1-.27l57.57,33.24a.74.74,0,0,1-.38,1.38Z"/><path class="cls-25" d="M104.92,134.3l-.13-.08L63.62,110.45l41.3-23.85.13.08,41.18,23.77ZM64.66,110.45l40.26,23.25,40.27-23.25L104.92,87.2Z"/><polygon class="cls-6" points="104.92 128.43 73.49 110.28 104.92 92.13 136.36 110.28 104.92 128.43"/><polygon class="cls-6" points="104.92 123.2 73.49 105.06 104.92 86.91 136.36 105.06 104.92 123.2"/><g class="cls-15"><polygon class="cls-6" points="104.92 90.96 80.65 76.95 104.92 62.94 129.19 76.95 104.92 90.96"/><polygon class="cls-6" points="129.19 76.95 129.19 105.06 104.92 119.07 104.92 90.96 129.19 76.95"/><polygon class="cls-6" points="80.65 76.95 80.65 105.06 104.92 119.07 104.92 90.96 80.65 76.95"/></g><polygon class="cls-9" points="104.92 119.07 80.65 105.06 104.92 91.04 129.19 105.06 104.92 119.07"/><polygon class="cls-16" points="136.36 105.06 136.36 110.28 104.92 128.43 104.92 123.2 136.36 105.06"/><polygon class="cls-6" points="73.49 105.06 73.49 110.28 104.92 128.43 104.92 123.2 73.49 105.06"/><polygon class="cls-17" points="73.49 105.06 73.49 110.28 104.92 128.43 104.92 123.2 73.49 105.06"/><polygon class="cls-6" points="104.92 84.78 73.49 66.63 104.92 48.48 136.36 66.63 104.92 84.78"/><polygon class="cls-6" points="73.49 61.41 73.49 66.63 104.92 84.78 104.92 79.56 73.49 61.41"/><polygon class="cls-18" points="104.92 84.78 104.92 123.2 73.49 105.06 73.49 66.63 104.92 84.78"/><polygon class="cls-18" points="80.65 70.77 80.65 105.06 104.92 119.07 129.19 105.06 129.19 70.77 104.92 84.78 80.65 70.77"/><polygon class="cls-18" points="104.92 84.78 104.92 119.07 80.65 105.06 80.65 70.77 104.92 84.78"/><polygon class="cls-19" points="73.49 66.63 73.49 105.06 104.92 123.2 136.36 105.06 136.36 66.63 104.92 84.78 73.49 66.63"/><polygon class="cls-6" points="104.92 79.56 73.49 61.41 104.92 43.26 136.36 61.41 104.92 79.56"/><polygon class="cls-9" points="104.92 79.56 73.49 61.41 104.92 43.26 136.36 61.41 104.92 79.56"/><polygon class="cls-16" points="136.36 61.41 136.36 66.63 104.92 84.78 104.92 79.56 136.36 61.41"/><polygon class="cls-17" points="73.49 61.41 73.49 66.63 104.92 84.78 104.92 79.56 73.49 61.41"/><polygon class="cls-20" points="74.23 61.41 105.29 43.47 104.92 43.26 73.49 61.41 104.92 79.56 105.29 79.34 74.23 61.41"/><polygon class="cls-6" points="104.92 77.84 76.36 61.35 104.92 48.36 133.48 61.35 104.92 77.84"/><polygon class="cls-6" points="76.36 60.1 76.36 61.35 104.92 77.84 104.92 76.59 76.36 60.1"/><polygon class="cls-6" points="104.92 76.59 76.36 60.1 104.92 43.61 133.48 60.1 104.92 76.59"/><polygon class="cls-9" points="104.92 76.59 76.36 60.1 104.92 43.61 133.48 60.1 104.92 76.59"/><polygon class="cls-16" points="133.48 60.1 133.48 61.35 104.92 77.84 104.92 76.59 133.48 60.1"/><polygon class="cls-17" points="76.36 60.1 76.36 61.35 104.92 77.84 104.92 76.59 76.36 60.1"/><polygon class="cls-20" points="77.04 60.1 105.26 43.81 104.92 43.61 76.36 60.1 104.92 76.59 105.26 76.39 77.04 60.1"/><polygon class="cls-4" points="85.51 60.72 84.43 60.1 104.92 48.27 106 48.89 85.51 60.72"/><polygon class="cls-4" points="87.67 61.97 86.59 61.35 107.08 49.52 108.16 50.14 87.67 61.97"/><polygon class="cls-4" points="89.82 63.22 88.75 62.59 109.23 50.76 110.31 51.38 89.82 63.22"/><polygon class="cls-4" points="91.98 64.46 90.9 63.84 111.39 52.01 112.47 52.63 91.98 64.46"/><polygon class="cls-4" points="94.14 65.7 93.06 65.08 113.55 53.25 114.63 53.88 94.14 65.7"/><polygon class="cls-4" points="96.3 66.95 95.22 66.33 115.71 54.5 116.78 55.12 96.3 66.95"/><polygon class="cls-4" points="98.45 68.2 97.37 67.57 117.86 55.74 118.94 56.37 98.45 68.2"/><polygon class="cls-4" points="100.61 69.44 99.53 68.82 120.02 56.99 121.1 57.61 100.61 69.44"/><polygon class="cls-4" points="102.77 70.69 101.69 70.06 122.18 58.23 123.25 58.86 102.77 70.69"/><polygon class="cls-4" points="104.92 71.93 103.84 71.31 124.33 59.48 125.41 60.1 104.92 71.93"/><polygon class="cls-8" points="104.92 48.27 106 48.89 104.92 49.52 104.92 48.27"/><polygon class="cls-8" points="107.08 49.52 108.16 50.14 107.08 50.76 107.08 49.52"/><polygon class="cls-8" points="109.23 50.76 110.31 51.38 109.24 52.01 109.23 50.76"/><polygon class="cls-8" points="111.39 52.01 112.47 52.63 111.39 53.25 111.39 52.01"/><polygon class="cls-8" points="113.55 53.25 114.63 53.88 113.55 54.5 113.55 53.25"/><polygon class="cls-8" points="115.71 54.5 116.78 55.12 115.71 55.74 115.71 54.5"/><polygon class="cls-8" points="117.86 55.74 118.94 56.37 117.86 56.99 117.86 55.74"/><polygon class="cls-8" points="120.02 56.99 121.1 57.61 120.02 58.23 120.02 56.99"/><polygon class="cls-8" points="122.18 58.23 123.25 58.86 122.18 59.48 122.18 58.23"/><polygon class="cls-8" points="124.33 59.48 125.41 60.1 124.33 60.72 124.33 59.48"/><g class="cls-10"><polygon class="cls-21" points="85.51 60.72 84.43 60.1 104.92 48.27 106 48.89 85.51 60.72"/><polygon class="cls-21" points="87.67 61.97 86.59 61.35 107.08 49.52 108.16 50.14 87.67 61.97"/><polygon class="cls-21" points="89.82 63.22 88.75 62.59 109.23 50.76 110.31 51.38 89.82 63.22"/><polygon class="cls-21" points="91.98 64.46 90.9 63.84 111.39 52.01 112.47 52.63 91.98 64.46"/><polygon class="cls-21" points="94.14 65.7 93.06 65.08 113.55 53.25 114.63 53.88 94.14 65.7"/><polygon class="cls-21" points="96.3 66.95 95.22 66.33 115.71 54.5 116.78 55.12 96.3 66.95"/><polygon class="cls-21" points="98.45 68.2 97.37 67.57 117.86 55.74 118.94 56.37 98.45 68.2"/><polygon class="cls-21" points="100.61 69.44 99.53 68.82 120.02 56.99 121.1 57.61 100.61 69.44"/><polygon class="cls-21" points="102.77 70.69 101.69 70.06 122.18 58.23 123.25 58.86 102.77 70.69"/><polygon class="cls-21" points="104.92 71.93 103.84 71.31 124.33 59.48 125.41 60.1 104.92 71.93"/></g><polygon class="cls-22" points="73.49 66.63 73.49 105.06 73.92 105.3 73.92 66.88 73.49 66.63"/><polygon class="cls-22" points="136.36 66.63 136.36 105.06 135.93 105.3 135.93 66.88 136.36 66.63"/><polygon class="cls-22" points="104.92 84.78 104.92 84.78 104.18 84.35 104.18 122.78 104.92 123.2 104.92 123.2 104.92 123.2 104.92 123.2 104.92 123.2 105.66 122.78 105.66 84.35 104.92 84.78"/><polygon class="cls-19" points="73.92 101.27 102.5 83.38 82.12 71.61 73.92 76.1 73.92 101.27"/><polygon class="cls-19" points="80.33 109 104.18 95.45 104.18 105.3 88.4 113.67 80.33 109"/><g class="cls-23"><polygon class="cls-24" points="75.44 71.36 102.54 87 102.54 85.78 75.44 70.14 75.44 71.36"/><polygon class="cls-24" points="75.44 74.23 102.54 89.87 102.54 88.64 75.44 73 75.44 74.23"/><polygon class="cls-24" points="75.44 77.1 102.54 92.74 102.54 91.51 75.44 75.88 75.44 77.1"/><polygon class="cls-24" points="75.44 79.97 102.54 95.61 102.54 94.38 75.44 78.75 75.44 79.97"/><polygon class="cls-24" points="75.44 82.84 102.54 98.48 102.54 97.25 75.44 81.61 75.44 82.84"/><polygon class="cls-24" points="75.44 85.71 102.54 101.35 102.54 100.12 75.44 84.48 75.44 85.71"/><polygon class="cls-24" points="75.44 88.58 102.54 104.22 102.54 102.99 75.44 87.36 75.44 88.58"/><polygon class="cls-24" points="75.44 91.45 102.54 107.09 102.54 105.86 75.44 90.22 75.44 91.45"/><polygon class="cls-24" points="75.44 94.32 102.54 109.96 102.54 108.73 75.44 93.09 75.44 94.32"/><polygon class="cls-24" points="75.44 97.19 102.54 112.83 102.54 111.6 75.44 95.96 75.44 97.19"/><polygon class="cls-24" points="75.44 100.06 102.54 115.7 102.54 114.47 75.44 98.83 75.44 100.06"/><polygon class="cls-24" points="75.44 102.93 102.54 118.56 102.54 117.34 75.44 101.7 75.44 102.93"/></g><path class="cls-27" d="M123.8,63.31a.34.34,0,0,1,0,.65,1.25,1.25,0,0,1-1.13,0,.34.34,0,0,1,0-.65A1.25,1.25,0,0,1,123.8,63.31Z"/><path class="cls-27" d="M125.55,62.3a.34.34,0,0,1,0,.65,1.25,1.25,0,0,1-1.13,0,.34.34,0,0,1,0-.65A1.25,1.25,0,0,1,125.55,62.3Z"/><path class="cls-27" d="M127.31,61.28a.34.34,0,0,1,0,.65,1.25,1.25,0,0,1-1.13,0,.34.34,0,0,1,0-.65A1.25,1.25,0,0,1,127.31,61.28Z"/><path class="cls-25" d="M107.87,86.18a1.18,1.18,0,0,1-.53.92c-.29.17-.53,0-.53-.3a1.18,1.18,0,0,1,.53-.92C107.63,85.71,107.87,85.85,107.87,86.18Z"/><path class="cls-25" d="M109.61,85.18a1.18,1.18,0,0,1-.53.92c-.29.16-.53,0-.53-.31a1.18,1.18,0,0,1,.53-.92C109.37,84.7,109.61,84.84,109.61,85.18Z"/><path class="cls-25" d="M111.35,84.17a1.15,1.15,0,0,1-.53.92c-.29.17-.52,0-.52-.31a1.17,1.17,0,0,1,.52-.91C111.12,83.7,111.35,83.83,111.35,84.17Z"/><polygon class="cls-25" points="125.5 76.62 112.16 84.32 112.16 83.1 125.5 75.4 125.5 76.62"/><path class="cls-25" d="M107.87,89.05a1.18,1.18,0,0,1-.53.92c-.29.17-.53,0-.53-.3a1.18,1.18,0,0,1,.53-.92C107.63,88.58,107.87,88.72,107.87,89.05Z"/><path class="cls-25" d="M109.61,88.05a1.18,1.18,0,0,1-.53.92c-.29.16-.53,0-.53-.31a1.18,1.18,0,0,1,.53-.92C109.37,87.57,109.61,87.71,109.61,88.05Z"/><path class="cls-25" d="M111.35,87a1.15,1.15,0,0,1-.53.92c-.29.17-.52,0-.52-.31a1.17,1.17,0,0,1,.52-.91C111.12,86.57,111.35,86.7,111.35,87Z"/><polygon class="cls-25" points="125.5 79.49 112.16 87.19 112.16 85.97 125.5 78.27 125.5 79.49"/><path class="cls-25" d="M107.87,91.92a1.18,1.18,0,0,1-.53.92c-.29.17-.53,0-.53-.3a1.18,1.18,0,0,1,.53-.92C107.63,91.45,107.87,91.59,107.87,91.92Z"/><path class="cls-25" d="M109.61,90.92a1.18,1.18,0,0,1-.53.92c-.29.16-.53,0-.53-.31a1.18,1.18,0,0,1,.53-.92C109.37,90.44,109.61,90.58,109.61,90.92Z"/><path class="cls-25" d="M111.35,89.91a1.15,1.15,0,0,1-.53.92c-.29.17-.52,0-.52-.31a1.17,1.17,0,0,1,.52-.91C111.12,89.44,111.35,89.57,111.35,89.91Z"/><polygon class="cls-25" points="125.5 82.36 112.16 90.06 112.16 88.84 125.5 81.14 125.5 82.36"/><path class="cls-25" d="M107.87,94.79a1.18,1.18,0,0,1-.53.92c-.29.17-.53,0-.53-.3a1.18,1.18,0,0,1,.53-.92C107.63,94.32,107.87,94.46,107.87,94.79Z"/><path class="cls-25" d="M109.61,93.79a1.15,1.15,0,0,1-.53.91c-.29.17-.53,0-.53-.3a1.18,1.18,0,0,1,.53-.92C109.37,93.31,109.61,93.45,109.61,93.79Z"/><path class="cls-25" d="M111.35,92.78a1.15,1.15,0,0,1-.53.92c-.29.17-.52,0-.52-.31a1.17,1.17,0,0,1,.52-.91C111.12,92.31,111.35,92.44,111.35,92.78Z"/><polygon class="cls-25" points="125.5 85.23 112.16 92.93 112.16 91.71 125.5 84.01 125.5 85.23"/><path class="cls-25" d="M107.87,97.66a1.18,1.18,0,0,1-.53.92c-.29.17-.53,0-.53-.31a1.18,1.18,0,0,1,.53-.91C107.63,97.19,107.87,97.33,107.87,97.66Z"/><path class="cls-25" d="M109.61,96.66a1.15,1.15,0,0,1-.53.91c-.29.17-.53,0-.53-.3a1.18,1.18,0,0,1,.53-.92C109.37,96.18,109.61,96.32,109.61,96.66Z"/><path class="cls-25" d="M111.35,95.65a1.15,1.15,0,0,1-.53.92c-.29.17-.52,0-.52-.31a1.17,1.17,0,0,1,.52-.91C111.12,95.18,111.35,95.31,111.35,95.65Z"/><polygon class="cls-25" points="125.5 88.1 112.16 95.8 112.16 94.58 125.5 86.88 125.5 88.1"/><path class="cls-25" d="M107.87,100.53a1.18,1.18,0,0,1-.53.92c-.29.17-.53,0-.53-.31a1.18,1.18,0,0,1,.53-.91C107.63,100.06,107.87,100.2,107.87,100.53Z"/><path class="cls-25" d="M109.61,99.53a1.15,1.15,0,0,1-.53.91c-.29.17-.53,0-.53-.3a1.18,1.18,0,0,1,.53-.92C109.37,99.05,109.61,99.19,109.61,99.53Z"/><path class="cls-25" d="M111.35,98.52a1.15,1.15,0,0,1-.53.92c-.29.17-.52,0-.52-.31a1.15,1.15,0,0,1,.52-.91C111.12,98.05,111.35,98.18,111.35,98.52Z"/><polygon class="cls-25" points="125.5 90.97 112.16 98.67 112.16 97.45 125.5 89.75 125.5 90.97"/><path class="cls-25" d="M107.87,103.4a1.18,1.18,0,0,1-.53.92c-.29.17-.53,0-.53-.31a1.18,1.18,0,0,1,.53-.91C107.63,102.93,107.87,103.07,107.87,103.4Z"/><path class="cls-25" d="M109.61,102.4a1.15,1.15,0,0,1-.53.91c-.29.17-.53,0-.53-.3a1.18,1.18,0,0,1,.53-.92C109.37,101.92,109.61,102.06,109.61,102.4Z"/><path class="cls-25" d="M111.35,101.39a1.15,1.15,0,0,1-.53.92c-.29.17-.52,0-.52-.31a1.15,1.15,0,0,1,.52-.91C111.12,100.92,111.35,101.05,111.35,101.39Z"/><polygon class="cls-25" points="125.5 93.84 112.16 101.54 112.16 100.32 125.5 92.61 125.5 93.84"/><path class="cls-25" d="M107.87,106.27a1.18,1.18,0,0,1-.53.92c-.29.17-.53,0-.53-.31a1.18,1.18,0,0,1,.53-.91C107.63,105.8,107.87,105.94,107.87,106.27Z"/><path class="cls-25" d="M109.61,105.27a1.16,1.16,0,0,1-.53.91c-.29.17-.53,0-.53-.3a1.18,1.18,0,0,1,.53-.92C109.37,104.79,109.61,104.93,109.61,105.27Z"/><path class="cls-25" d="M111.35,104.26a1.15,1.15,0,0,1-.53.92c-.29.17-.52,0-.52-.31a1.15,1.15,0,0,1,.52-.91C111.12,103.79,111.35,103.92,111.35,104.26Z"/><polygon class="cls-25" points="125.5 96.71 112.16 104.41 112.16 103.19 125.5 95.48 125.5 96.71"/><path class="cls-25" d="M107.87,109.14a1.18,1.18,0,0,1-.53.92c-.29.17-.53,0-.53-.31a1.18,1.18,0,0,1,.53-.91C107.63,108.67,107.87,108.81,107.87,109.14Z"/><path class="cls-25" d="M109.61,108.14a1.16,1.16,0,0,1-.53.91c-.29.17-.53,0-.53-.3a1.18,1.18,0,0,1,.53-.92C109.37,107.66,109.61,107.8,109.61,108.14Z"/><path class="cls-25" d="M111.35,107.13a1.15,1.15,0,0,1-.53.92c-.29.17-.52,0-.52-.31a1.14,1.14,0,0,1,.52-.91C111.12,106.66,111.35,106.79,111.35,107.13Z"/><polygon class="cls-25" points="125.5 99.58 112.16 107.28 112.16 106.06 125.5 98.36 125.5 99.58"/><path class="cls-25" d="M107.87,112a1.18,1.18,0,0,1-.53.92c-.29.17-.53,0-.53-.31a1.18,1.18,0,0,1,.53-.91C107.63,111.54,107.87,111.67,107.87,112Z"/><path class="cls-25" d="M109.61,111a1.16,1.16,0,0,1-.53.91c-.29.17-.53,0-.53-.3a1.18,1.18,0,0,1,.53-.92C109.37,110.53,109.61,110.67,109.61,111Z"/><path class="cls-25" d="M111.35,110a1.15,1.15,0,0,1-.53.92c-.29.17-.52,0-.52-.31a1.14,1.14,0,0,1,.52-.91C111.12,109.53,111.35,109.66,111.35,110Z"/><polygon class="cls-25" points="125.5 102.45 112.16 110.15 112.16 108.93 125.5 101.22 125.5 102.45"/><path class="cls-25" d="M107.87,114.88a1.18,1.18,0,0,1-.53.92c-.29.17-.53,0-.53-.31a1.18,1.18,0,0,1,.53-.91C107.63,114.41,107.87,114.54,107.87,114.88Z"/><path class="cls-25" d="M109.61,113.88a1.18,1.18,0,0,1-.53.91c-.29.17-.53,0-.53-.3a1.18,1.18,0,0,1,.53-.92C109.37,113.4,109.61,113.54,109.61,113.88Z"/><path class="cls-25" d="M111.35,112.87a1.15,1.15,0,0,1-.53.92c-.29.17-.52,0-.52-.31a1.14,1.14,0,0,1,.52-.91C111.12,112.4,111.35,112.53,111.35,112.87Z"/><polygon class="cls-25" points="125.5 105.32 112.16 113.02 112.16 111.8 125.5 104.09 125.5 105.32"/><path class="cls-25" d="M107.87,117.75a1.18,1.18,0,0,1-.53.92c-.29.17-.53,0-.53-.31a1.18,1.18,0,0,1,.53-.91C107.63,117.28,107.87,117.41,107.87,117.75Z"/><path class="cls-25" d="M109.61,116.75a1.18,1.18,0,0,1-.53.91c-.29.17-.53,0-.53-.3a1.18,1.18,0,0,1,.53-.92C109.37,116.27,109.61,116.41,109.61,116.75Z"/><path class="cls-25" d="M111.35,115.74a1.15,1.15,0,0,1-.53.92c-.29.17-.52,0-.52-.31a1.14,1.14,0,0,1,.52-.91C111.12,115.27,111.35,115.4,111.35,115.74Z"/><polygon class="cls-25" points="125.5 108.19 112.16 115.89 112.16 114.67 125.5 106.97 125.5 108.19"/><polygon class="cls-26" points="134.58 102.99 126.75 107.51 126.75 74.79 134.58 70.27 134.58 102.99"/><path class="cls-25" d="M182.6,42.92a1.18,1.18,0,0,1-.53.92c-.29.17-.53,0-.53-.3a1.18,1.18,0,0,1,.53-.92C182.36,42.45,182.6,42.59,182.6,42.92Z"/><path class="cls-25" d="M184.34,41.92a1.15,1.15,0,0,1-.53.92c-.29.17-.53,0-.53-.31a1.18,1.18,0,0,1,.53-.92C184.11,41.44,184.34,41.58,184.34,41.92Z"/><path class="cls-25" d="M186.09,40.91a1.18,1.18,0,0,1-.53.92c-.3.17-.53,0-.53-.31a1.15,1.15,0,0,1,.53-.91C185.85,40.44,186.09,40.58,186.09,40.91Z"/><polygon class="cls-25" points="200.23 33.36 186.89 41.06 186.89 39.84 200.23 32.14 200.23 33.36"/><path class="cls-25" d="M182.6,45.79a1.18,1.18,0,0,1-.53.92c-.29.17-.53,0-.53-.3a1.18,1.18,0,0,1,.53-.92C182.36,45.32,182.6,45.46,182.6,45.79Z"/><path class="cls-25" d="M184.34,44.79a1.15,1.15,0,0,1-.53.92c-.29.16-.53,0-.53-.31a1.18,1.18,0,0,1,.53-.92C184.11,44.31,184.34,44.45,184.34,44.79Z"/><path class="cls-25" d="M186.09,43.78a1.18,1.18,0,0,1-.53.92c-.3.17-.53,0-.53-.31a1.15,1.15,0,0,1,.53-.91C185.85,43.31,186.09,43.45,186.09,43.78Z"/><polygon class="cls-25" points="200.23 36.23 186.89 43.93 186.89 42.71 200.23 35.01 200.23 36.23"/><path class="cls-25" d="M182.6,48.66a1.18,1.18,0,0,1-.53.92c-.29.17-.53,0-.53-.3a1.18,1.18,0,0,1,.53-.92C182.36,48.19,182.6,48.33,182.6,48.66Z"/><path class="cls-25" d="M184.34,47.66a1.15,1.15,0,0,1-.53.92c-.29.16-.53,0-.53-.31a1.18,1.18,0,0,1,.53-.92C184.11,47.18,184.34,47.32,184.34,47.66Z"/><path class="cls-25" d="M186.09,46.65a1.18,1.18,0,0,1-.53.92c-.3.17-.53,0-.53-.31a1.15,1.15,0,0,1,.53-.91C185.85,46.18,186.09,46.32,186.09,46.65Z"/><polygon class="cls-25" points="200.23 39.1 186.89 46.8 186.89 45.58 200.23 37.88 200.23 39.1"/><path class="cls-25" d="M182.6,51.53a1.18,1.18,0,0,1-.53.92c-.29.17-.53,0-.53-.3a1.18,1.18,0,0,1,.53-.92C182.36,51.06,182.6,51.2,182.6,51.53Z"/><path class="cls-25" d="M184.34,50.53a1.15,1.15,0,0,1-.53.92c-.29.16-.53,0-.53-.31a1.18,1.18,0,0,1,.53-.92C184.11,50.05,184.34,50.19,184.34,50.53Z"/><path class="cls-25" d="M186.09,49.52a1.18,1.18,0,0,1-.53.92c-.3.17-.53,0-.53-.31a1.15,1.15,0,0,1,.53-.91C185.85,49.05,186.09,49.19,186.09,49.52Z"/><polygon class="cls-25" points="200.23 41.97 186.89 49.67 186.89 48.45 200.23 40.75 200.23 41.97"/><path class="cls-25" d="M182.6,54.4a1.18,1.18,0,0,1-.53.92c-.29.17-.53,0-.53-.3a1.18,1.18,0,0,1,.53-.92C182.36,53.93,182.6,54.07,182.6,54.4Z"/><path class="cls-25" d="M184.34,53.4a1.15,1.15,0,0,1-.53.92c-.29.16-.53,0-.53-.31a1.18,1.18,0,0,1,.53-.92C184.11,52.92,184.34,53.06,184.34,53.4Z"/><path class="cls-25" d="M186.09,52.39a1.18,1.18,0,0,1-.53.92c-.3.17-.53,0-.53-.31a1.15,1.15,0,0,1,.53-.91C185.85,51.92,186.09,52.06,186.09,52.39Z"/><polygon class="cls-25" points="200.23 44.84 186.89 52.54 186.89 51.32 200.23 43.62 200.23 44.84"/><path class="cls-25" d="M182.6,57.27a1.18,1.18,0,0,1-.53.92c-.29.17-.53,0-.53-.3a1.18,1.18,0,0,1,.53-.92C182.36,56.8,182.6,56.94,182.6,57.27Z"/><path class="cls-25" d="M184.34,56.27a1.15,1.15,0,0,1-.53.92c-.29.16-.53,0-.53-.31a1.18,1.18,0,0,1,.53-.92C184.11,55.79,184.34,55.93,184.34,56.27Z"/><path class="cls-25" d="M186.09,55.26a1.18,1.18,0,0,1-.53.92c-.3.17-.53,0-.53-.31a1.15,1.15,0,0,1,.53-.91C185.85,54.79,186.09,54.92,186.09,55.26Z"/><polygon class="cls-25" points="200.23 47.71 186.89 55.41 186.89 54.19 200.23 46.49 200.23 47.71"/><path class="cls-25" d="M182.6,60.14a1.18,1.18,0,0,1-.53.92c-.29.17-.53,0-.53-.3a1.18,1.18,0,0,1,.53-.92C182.36,59.67,182.6,59.81,182.6,60.14Z"/><path class="cls-25" d="M184.34,59.14a1.15,1.15,0,0,1-.53.92c-.29.16-.53,0-.53-.31a1.18,1.18,0,0,1,.53-.92C184.11,58.66,184.34,58.8,184.34,59.14Z"/><path class="cls-25" d="M186.09,58.13a1.18,1.18,0,0,1-.53.92c-.3.17-.53,0-.53-.31a1.15,1.15,0,0,1,.53-.91C185.85,57.66,186.09,57.79,186.09,58.13Z"/><polygon class="cls-25" points="200.23 50.58 186.89 58.28 186.89 57.06 200.23 49.36 200.23 50.58"/><path class="cls-25" d="M182.6,63a1.18,1.18,0,0,1-.53.92c-.29.17-.53,0-.53-.3a1.18,1.18,0,0,1,.53-.92C182.36,62.54,182.6,62.68,182.6,63Z"/><path class="cls-25" d="M184.34,62a1.12,1.12,0,0,1-.53.91c-.29.17-.53,0-.53-.3a1.18,1.18,0,0,1,.53-.92C184.11,61.53,184.34,61.67,184.34,62Z"/><path class="cls-25" d="M186.09,61a1.18,1.18,0,0,1-.53.92c-.3.17-.53,0-.53-.31a1.15,1.15,0,0,1,.53-.91C185.85,60.53,186.09,60.66,186.09,61Z"/><polygon class="cls-25" points="200.23 53.45 186.89 61.15 186.89 59.93 200.23 52.23 200.23 53.45"/><path class="cls-25" d="M182.6,65.88a1.18,1.18,0,0,1-.53.92c-.29.17-.53,0-.53-.31a1.18,1.18,0,0,1,.53-.91C182.36,65.41,182.6,65.55,182.6,65.88Z"/><path class="cls-25" d="M184.34,64.88a1.12,1.12,0,0,1-.53.91c-.29.17-.53,0-.53-.3a1.18,1.18,0,0,1,.53-.92C184.11,64.4,184.34,64.54,184.34,64.88Z"/><path class="cls-25" d="M186.09,63.87a1.18,1.18,0,0,1-.53.92c-.3.17-.53,0-.53-.31a1.15,1.15,0,0,1,.53-.91C185.85,63.4,186.09,63.53,186.09,63.87Z"/><polygon class="cls-25" points="200.23 56.32 186.89 64.02 186.89 62.8 200.23 55.1 200.23 56.32"/><path class="cls-25" d="M182.6,68.75a1.18,1.18,0,0,1-.53.92c-.29.17-.53,0-.53-.31a1.18,1.18,0,0,1,.53-.91C182.36,68.28,182.6,68.42,182.6,68.75Z"/><path class="cls-25" d="M184.34,67.75a1.12,1.12,0,0,1-.53.91c-.29.17-.53,0-.53-.3a1.18,1.18,0,0,1,.53-.92C184.11,67.27,184.34,67.41,184.34,67.75Z"/><path class="cls-25" d="M186.09,66.74a1.18,1.18,0,0,1-.53.92c-.3.17-.53,0-.53-.31a1.14,1.14,0,0,1,.53-.91C185.85,66.27,186.09,66.4,186.09,66.74Z"/><polygon class="cls-25" points="200.23 59.19 186.89 66.89 186.89 65.67 200.23 57.97 200.23 59.19"/><path class="cls-25" d="M182.6,71.62a1.18,1.18,0,0,1-.53.92c-.29.17-.53,0-.53-.31a1.18,1.18,0,0,1,.53-.91C182.36,71.15,182.6,71.29,182.6,71.62Z"/><path class="cls-25" d="M184.34,70.62a1.12,1.12,0,0,1-.53.91c-.29.17-.53,0-.53-.3a1.18,1.18,0,0,1,.53-.92C184.11,70.14,184.34,70.28,184.34,70.62Z"/><path class="cls-25" d="M186.09,69.61a1.18,1.18,0,0,1-.53.92c-.3.17-.53,0-.53-.31a1.14,1.14,0,0,1,.53-.91C185.85,69.14,186.09,69.27,186.09,69.61Z"/><polygon class="cls-25" points="200.23 62.06 186.89 69.76 186.89 68.54 200.23 60.84 200.23 62.06"/><path class="cls-25" d="M182.6,74.49a1.18,1.18,0,0,1-.53.92c-.29.17-.53,0-.53-.31a1.18,1.18,0,0,1,.53-.91C182.36,74,182.6,74.16,182.6,74.49Z"/><path class="cls-25" d="M184.34,73.49a1.14,1.14,0,0,1-.53.91c-.29.17-.53,0-.53-.3a1.18,1.18,0,0,1,.53-.92C184.11,73,184.34,73.15,184.34,73.49Z"/><path class="cls-25" d="M186.09,72.48a1.18,1.18,0,0,1-.53.92c-.3.17-.53,0-.53-.31a1.14,1.14,0,0,1,.53-.91C185.85,72,186.09,72.14,186.09,72.48Z"/><polygon class="cls-25" points="200.23 64.93 186.89 72.63 186.89 71.41 200.23 63.7 200.23 64.93"/><polygon class="cls-26" points="209.32 59.73 201.48 64.25 201.48 31.53 209.32 27.01 209.32 59.73"/><polygon class="cls-19" points="31.63 137.63 15.54 128.34 37.35 115.74 53.45 125.03 31.63 137.63"/><polygon class="cls-25" points="40.46 120.52 36.79 118.41 37.5 118 41.16 120.11 40.46 120.52"/><polygon class="cls-25" points="43.27 122.15 41.58 121.17 42.29 120.76 43.98 121.74 43.27 122.15"/><polygon class="cls-25" points="48.83 125.36 44.4 122.8 45.11 122.39 49.54 124.95 48.83 125.36"/><polygon class="cls-25" points="38.88 121.43 35.21 119.31 35.92 118.91 39.59 121.02 38.88 121.43"/><polygon class="cls-25" points="41.7 123.06 40 122.08 40.71 121.67 42.41 122.65 41.7 123.06"/><polygon class="cls-25" points="47.26 126.27 42.82 123.71 43.53 123.3 47.97 125.86 47.26 126.27"/><polygon class="cls-25" points="37.3 122.34 33.64 120.23 34.35 119.82 38.01 121.93 37.3 122.34"/><polygon class="cls-25" points="40.12 123.97 38.43 122.99 39.13 122.58 40.83 123.56 40.12 123.97"/><polygon class="cls-25" points="45.68 127.18 41.24 124.62 41.95 124.21 46.39 126.77 45.68 127.18"/><polygon class="cls-25" points="35.73 123.25 32.06 121.14 32.77 120.73 36.44 122.84 35.73 123.25"/><polygon class="cls-25" points="38.54 124.88 36.85 123.9 37.56 123.49 39.25 124.47 38.54 124.88"/><polygon class="cls-25" points="44.1 128.09 39.67 125.53 40.38 125.12 44.81 127.68 44.1 128.09"/><polygon class="cls-25" points="34.15 124.16 30.48 122.05 31.19 121.64 34.86 123.75 34.15 124.16"/><polygon class="cls-25" points="36.97 125.79 35.27 124.81 35.98 124.4 37.68 125.38 36.97 125.79"/><polygon class="cls-25" points="42.52 129 38.09 126.44 38.8 126.03 43.23 128.59 42.52 129"/><polygon class="cls-25" points="32.57 125.07 28.91 122.96 29.62 122.55 33.28 124.66 32.57 125.07"/><polygon class="cls-25" points="35.39 126.7 33.7 125.72 34.41 125.31 36.1 126.29 35.39 126.7"/><polygon class="cls-25" points="40.95 129.91 36.51 127.35 37.22 126.94 41.66 129.5 40.95 129.91"/><polygon class="cls-25" points="31 125.98 27.33 123.87 28.04 123.46 31.7 125.57 31 125.98"/><polygon class="cls-25" points="33.81 127.61 32.12 126.63 32.83 126.22 34.52 127.2 33.81 127.61"/><polygon class="cls-25" points="39.37 130.82 34.94 128.26 35.65 127.85 40.08 130.41 39.37 130.82"/><polygon class="cls-25" points="29.42 126.89 25.75 124.78 26.46 124.37 30.13 126.48 29.42 126.89"/><polygon class="cls-25" points="32.24 128.52 30.54 127.54 31.25 127.13 32.95 128.11 32.24 128.52"/><polygon class="cls-25" points="37.8 131.73 33.36 129.17 34.07 128.76 38.51 131.32 37.8 131.73"/><polygon class="cls-25" points="27.84 127.8 24.18 125.69 24.89 125.28 28.55 127.39 27.84 127.8"/><polygon class="cls-25" points="30.66 129.43 28.96 128.45 29.68 128.04 31.37 129.02 30.66 129.43"/><polygon class="cls-25" points="36.22 132.64 31.78 130.08 32.49 129.67 36.93 132.23 36.22 132.64"/><polygon class="cls-25" points="26.27 128.72 22.6 126.6 23.31 126.19 26.98 128.31 26.27 128.72"/><polygon class="cls-25" points="29.08 130.34 27.39 129.36 28.1 128.95 29.79 129.93 29.08 130.34"/><polygon class="cls-25" points="34.64 133.55 30.21 130.99 30.92 130.58 35.35 133.14 34.64 133.55"/><polygon class="cls-25" points="24.69 129.63 21.02 127.51 21.73 127.1 25.4 129.22 24.69 129.63"/><polygon class="cls-25" points="27.51 131.25 25.81 130.27 26.52 129.86 28.22 130.84 27.51 131.25"/><polygon class="cls-25" points="33.06 134.46 28.63 131.9 29.34 131.49 33.77 134.05 33.06 134.46"/><polygon class="cls-25" points="23.11 130.53 19.45 128.42 20.16 128.01 23.82 130.13 23.11 130.53"/><polygon class="cls-25" points="25.93 132.16 24.23 131.18 24.95 130.77 26.64 131.75 25.93 132.16"/><polygon class="cls-25" points="31.49 135.37 27.05 132.81 27.76 132.4 32.2 134.96 31.49 135.37"/><polygon class="cls-19" points="53.85 150.45 37.76 141.16 59.57 128.57 75.66 137.86 53.85 150.45"/><polygon class="cls-25" points="62.67 133.35 59.01 131.23 59.72 130.82 63.38 132.94 62.67 133.35"/><polygon class="cls-25" points="65.49 134.98 63.8 134 64.51 133.59 66.2 134.57 65.49 134.98"/><polygon class="cls-25" points="71.05 138.19 66.62 135.63 67.33 135.22 71.76 137.78 71.05 138.19"/><polygon class="cls-25" points="61.1 134.26 57.43 132.14 58.14 131.73 61.81 133.85 61.1 134.26"/><polygon class="cls-25" points="63.92 135.89 62.22 134.91 62.93 134.5 64.63 135.48 63.92 135.89"/><polygon class="cls-25" points="69.47 139.1 65.04 136.54 65.75 136.13 70.18 138.69 69.47 139.1"/><polygon class="cls-25" points="59.52 135.17 55.85 133.05 56.56 132.64 60.23 134.76 59.52 135.17"/><polygon class="cls-25" points="62.34 136.8 60.64 135.82 61.35 135.41 63.05 136.39 62.34 136.8"/><polygon class="cls-25" points="67.9 140.01 63.46 137.45 64.17 137.04 68.61 139.6 67.9 140.01"/><polygon class="cls-25" points="57.94 136.08 54.28 133.96 54.99 133.55 58.65 135.67 57.94 136.08"/><polygon class="cls-25" points="60.76 137.71 59.07 136.73 59.78 136.32 61.47 137.3 60.76 137.71"/><polygon class="cls-25" points="66.32 140.92 61.89 138.36 62.6 137.95 67.03 140.51 66.32 140.92"/><polygon class="cls-25" points="56.37 136.99 52.7 134.87 53.41 134.47 57.08 136.58 56.37 136.99"/><polygon class="cls-25" points="59.19 138.62 57.49 137.64 58.2 137.23 59.9 138.21 59.19 138.62"/><polygon class="cls-25" points="64.74 141.83 60.31 139.27 61.02 138.86 65.45 141.42 64.74 141.83"/><polygon class="cls-25" points="54.79 137.9 51.13 135.78 51.83 135.38 55.5 137.49 54.79 137.9"/><polygon class="cls-25" points="57.61 139.53 55.91 138.55 56.62 138.14 58.32 139.12 57.61 139.53"/><polygon class="cls-25" points="63.17 142.74 58.73 140.18 59.44 139.77 63.88 142.33 63.17 142.74"/><polygon class="cls-25" points="53.21 138.81 49.55 136.69 50.26 136.28 53.92 138.4 53.21 138.81"/><polygon class="cls-25" points="56.03 140.44 54.34 139.46 55.05 139.05 56.74 140.03 56.03 140.44"/><polygon class="cls-25" points="61.59 143.65 57.16 141.09 57.87 140.68 62.3 143.24 61.59 143.65"/><polygon class="cls-25" points="51.64 139.72 47.97 137.6 48.68 137.2 52.35 139.31 51.64 139.72"/><polygon class="cls-25" points="54.46 141.35 52.76 140.37 53.47 139.96 55.16 140.94 54.46 141.35"/><polygon class="cls-25" points="60.01 144.56 55.58 142 56.29 141.59 60.72 144.15 60.01 144.56"/><polygon class="cls-25" points="50.06 140.63 46.4 138.52 47.1 138.11 50.77 140.22 50.06 140.63"/><polygon class="cls-25" points="52.88 142.26 51.18 141.28 51.89 140.87 53.59 141.85 52.88 142.26"/><polygon class="cls-25" points="58.44 145.47 54 142.91 54.71 142.5 59.15 145.06 58.44 145.47"/><polygon class="cls-25" points="48.48 141.54 44.82 139.43 45.53 139.02 49.19 141.13 48.48 141.54"/><polygon class="cls-25" points="51.3 143.17 49.61 142.19 50.32 141.78 52.01 142.76 51.3 143.17"/><polygon class="cls-25" points="56.86 146.38 52.43 143.82 53.13 143.41 57.57 145.97 56.86 146.38"/><polygon class="cls-25" points="46.91 142.45 43.24 140.34 43.95 139.93 47.62 142.04 46.91 142.45"/><polygon class="cls-25" points="49.73 144.08 48.03 143.1 48.74 142.69 50.44 143.67 49.73 144.08"/><polygon class="cls-25" points="55.28 147.29 50.85 144.73 51.56 144.32 55.99 146.88 55.28 147.29"/><polygon class="cls-25" points="45.33 143.36 41.66 141.25 42.37 140.84 46.04 142.95 45.33 143.36"/><polygon class="cls-25" points="48.15 144.99 46.45 144.01 47.16 143.6 48.86 144.58 48.15 144.99"/><polygon class="cls-25" points="53.71 148.2 49.27 145.64 49.98 145.23 54.42 147.79 53.71 148.2"/><polygon class="cls-19" points="76.07 163.28 59.98 153.99 81.79 141.4 97.88 150.69 76.07 163.28"/><polygon class="cls-25" points="84.89 146.18 81.23 144.06 81.94 143.65 85.6 145.77 84.89 146.18"/><polygon class="cls-25" points="87.71 147.81 86.02 146.83 86.73 146.42 88.42 147.4 87.71 147.81"/><polygon class="cls-25" points="93.27 151.01 88.83 148.45 89.54 148.04 93.98 150.6 93.27 151.01"/><polygon class="cls-25" points="83.32 147.09 79.65 144.97 80.36 144.56 84.03 146.68 83.32 147.09"/><polygon class="cls-25" points="86.14 148.72 84.44 147.74 85.15 147.33 86.84 148.31 86.14 148.72"/><polygon class="cls-25" points="91.69 151.92 87.26 149.36 87.97 148.95 92.4 151.51 91.69 151.92"/><polygon class="cls-25" points="81.74 148 78.07 145.88 78.78 145.47 82.45 147.59 81.74 148"/><polygon class="cls-25" points="84.56 149.63 82.86 148.65 83.57 148.24 85.27 149.22 84.56 149.63"/><polygon class="cls-25" points="90.12 152.83 85.68 150.27 86.39 149.86 90.83 152.43 90.12 152.83"/><polygon class="cls-25" points="80.16 148.91 76.5 146.79 77.21 146.38 80.87 148.5 80.16 148.91"/><polygon class="cls-25" points="82.98 150.54 81.29 149.56 82 149.15 83.69 150.13 82.98 150.54"/><polygon class="cls-25" points="88.54 153.75 84.11 151.18 84.81 150.78 89.25 153.34 88.54 153.75"/><polygon class="cls-25" points="78.59 149.82 74.92 147.7 75.63 147.29 79.3 149.41 78.59 149.82"/><polygon class="cls-25" points="81.41 151.45 79.71 150.47 80.42 150.06 82.11 151.04 81.41 151.45"/><polygon class="cls-25" points="86.96 154.66 82.53 152.09 83.24 151.69 87.67 154.25 86.96 154.66"/><polygon class="cls-25" points="77.01 150.73 73.34 148.61 74.05 148.2 77.72 150.32 77.01 150.73"/><polygon class="cls-25" points="79.83 152.36 78.13 151.38 78.84 150.97 80.54 151.95 79.83 152.36"/><polygon class="cls-25" points="85.39 155.56 80.95 153 81.66 152.59 86.1 155.16 85.39 155.56"/><polygon class="cls-25" points="75.43 151.64 71.77 149.52 72.48 149.11 76.14 151.23 75.43 151.64"/><polygon class="cls-25" points="78.25 153.27 76.56 152.29 77.27 151.88 78.96 152.86 78.25 153.27"/><polygon class="cls-25" points="83.81 156.48 79.38 153.91 80.08 153.51 84.52 156.07 83.81 156.48"/><polygon class="cls-25" points="73.86 152.55 70.19 150.43 70.9 150.02 74.57 152.14 73.86 152.55"/><polygon class="cls-25" points="76.67 154.18 74.98 153.2 75.69 152.79 77.38 153.77 76.67 154.18"/><polygon class="cls-25" points="82.23 157.39 77.8 154.83 78.51 154.42 82.94 156.98 82.23 157.39"/><polygon class="cls-25" points="72.28 153.46 68.61 151.34 69.32 150.93 72.99 153.05 72.28 153.46"/><polygon class="cls-25" points="75.1 155.09 73.4 154.11 74.11 153.7 75.81 154.68 75.1 155.09"/><polygon class="cls-25" points="80.66 158.3 76.22 155.74 76.93 155.33 81.36 157.89 80.66 158.3"/><polygon class="cls-25" points="70.7 154.37 67.04 152.25 67.75 151.84 71.41 153.96 70.7 154.37"/><polygon class="cls-25" points="73.52 156 71.83 155.02 72.53 154.61 74.23 155.59 73.52 156"/><polygon class="cls-25" points="79.08 159.21 74.64 156.65 75.35 156.24 79.79 158.8 79.08 159.21"/><polygon class="cls-25" points="69.13 155.28 65.46 153.16 66.17 152.75 69.83 154.87 69.13 155.28"/><polygon class="cls-25" points="71.94 156.91 70.25 155.93 70.96 155.52 72.65 156.5 71.94 156.91"/><polygon class="cls-25" points="77.5 160.12 73.07 157.56 73.78 157.15 78.21 159.71 77.5 160.12"/><polygon class="cls-25" points="67.55 156.19 63.88 154.07 64.59 153.66 68.26 155.78 67.55 156.19"/><polygon class="cls-25" points="70.37 157.82 68.67 156.84 69.38 156.43 71.08 157.41 70.37 157.82"/><polygon class="cls-25" points="75.93 161.03 71.49 158.47 72.2 158.06 76.64 160.62 75.93 161.03"/><rect class="cls-19" x="66.23" y="127.8" width="20.76" height="0.46" transform="translate(-53.82 55.57) rotate(-30.05)"/><polygon class="cls-19" points="89.95 146.24 89.72 145.84 99.49 140.21 55.13 114.59 45.13 120.36 44.9 119.97 55.13 114.06 55.24 114.13 100.41 140.21 89.95 146.24"/><path class="cls-25" d="M111.19,164a.2.2,0,0,1-.13,0l-9.5-5.48a.26.26,0,0,1-.1-.35.26.26,0,0,1,.36-.1l9.5,5.48a.27.27,0,0,1,.09.36A.27.27,0,0,1,111.19,164Z"/><path class="cls-25" d="M151.75,140.47a.28.28,0,0,1-.13,0l-9.5-5.48a.26.26,0,0,1-.09-.36.26.26,0,0,1,.35-.09l9.5,5.48a.26.26,0,0,1,.09.35A.24.24,0,0,1,151.75,140.47Z"/><path class="cls-25" d="M191.7,117.39a.31.31,0,0,1-.13,0l-9.49-5.48a.26.26,0,0,1-.1-.36.27.27,0,0,1,.36-.09l9.49,5.48a.25.25,0,0,1,.1.35A.26.26,0,0,1,191.7,117.39Z"/><path class="cls-5" d="M159.4,171.92,141.19,161.4c-1.39-.8-1.21-2.19.38-3.12L159,148.22a6,6,0,0,1,5.4-.23l18.22,10.52c1.38.8,1.21,2.19-.39,3.12L164.8,171.69A6,6,0,0,1,159.4,171.92Z"/><path class="cls-6" d="M188.77,151.67v-4.22H177.89L165,140a7.49,7.49,0,0,0-6.71.28l-12.38,7.15H135v4.46h0a2,2,0,0,0,1.15,1.8l22.61,13a7.44,7.44,0,0,0,6.7-.28L187.14,154A2.64,2.64,0,0,0,188.77,151.67Z"/><path class="cls-11" d="M188.77,151.67v-4.22H177.89L165,140a7.49,7.49,0,0,0-6.71.28l-12.38,7.15H135v4.46h0a2,2,0,0,0,1.15,1.8l22.61,13a7.44,7.44,0,0,0,6.7-.28L187.14,154A2.64,2.64,0,0,0,188.77,151.67Z"/><path class="cls-16" d="M165,140a6.15,6.15,0,0,0-3.12-.66v28.06a7.68,7.68,0,0,0,3.6-.94L187.14,154a2.64,2.64,0,0,0,1.63-2.32v-4.22H177.89Z"/><path class="cls-6" d="M158.8,162.3l-22.61-13.05c-1.72-1-1.5-2.73.48-3.87l21.64-12.5a7.45,7.45,0,0,1,6.71-.27l22.6,13c1.72,1,1.51,2.72-.48,3.87L165.5,162A7.44,7.44,0,0,1,158.8,162.3Z"/><path class="cls-11" d="M158.8,162.3l-22.61-13.05c-1.72-1-1.5-2.73.48-3.87l21.64-12.5a7.45,7.45,0,0,1,6.71-.27l22.6,13c1.72,1,1.51,2.72-.48,3.87L165.5,162A7.44,7.44,0,0,1,158.8,162.3Z"/><path class="cls-8" d="M159.4,159.42,141.19,148.9c-1.39-.8-1.21-2.19.38-3.12L159,135.71a6,6,0,0,1,5.4-.22L182.63,146c1.38.8,1.21,2.19-.39,3.11L164.8,159.19A6,6,0,0,1,159.4,159.42Z"/><path class="cls-4" d="M141.57,147.15,159,137.08a6,6,0,0,1,5.4-.22l18.22,10.51a2.07,2.07,0,0,1,.74.69,1.45,1.45,0,0,0-.74-2.05l-18.22-10.52a6,6,0,0,0-5.4.22l-17.44,10.07c-1.2.7-1.59,1.66-1.12,2.44A2.76,2.76,0,0,1,141.57,147.15Z"/><path class="cls-11" d="M159.56,162.3,137,149.25c-1.72-1-2.13-2.45.48-3.87l21.64-12.5a7.76,7.76,0,0,1,3.39-.93,7.85,7.85,0,0,0-4.15.93l-21.64,12.5c-2,1.14-2.2,2.88-.48,3.87L158.8,162.3a6.21,6.21,0,0,0,3.31.66A5.62,5.62,0,0,1,159.56,162.3Z"/><path class="cls-11" d="M187.14,151.41l-21.64,12.5a7.47,7.47,0,0,1-6.7.28l-22.61-13.06a1.94,1.94,0,0,1-1.15-1.79h0v.92h0a2,2,0,0,0,1.15,1.8l22.61,13.05a7.44,7.44,0,0,0,6.7-.28l21.64-12.49a2.64,2.64,0,0,0,1.63-2.32v-.92C188.84,149.9,188.29,150.75,187.14,151.41Z"/><path class="cls-27" d="M183.43,150.07c.25.14.25.37,0,.51a.94.94,0,0,1-.89,0c-.25-.14-.25-.37,0-.51A.94.94,0,0,1,183.43,150.07Z"/><path class="cls-27" d="M184.82,149.26c.25.15.25.38,0,.52a1,1,0,0,1-.89,0c-.25-.14-.25-.37,0-.52A1,1,0,0,1,184.82,149.26Z"/><path class="cls-27" d="M186.21,148.46c.25.14.25.37,0,.52a1,1,0,0,1-.89,0c-.25-.15-.25-.38,0-.52A1,1,0,0,1,186.21,148.46Z"/><g class="cls-28"><path class="cls-29" d="M200.11,148.42,181.89,137.9c-1.38-.8-1.21-2.19.39-3.11l17.44-10.07a6,6,0,0,1,5.4-.23L223.33,135c1.39.8,1.21,2.2-.39,3.12L205.51,148.2A6,6,0,0,1,200.11,148.42Z"/></g><path class="cls-6" d="M229.48,128.18V124H218.59l-12.87-7.44a7.47,7.47,0,0,0-6.7.28L186.63,124H175.74v4.45h0a1.93,1.93,0,0,0,1.15,1.8l22.6,13a7.44,7.44,0,0,0,6.7-.28l21.65-12.49A2.67,2.67,0,0,0,229.48,128.18Z"/><path class="cls-11" d="M229.48,128.18V124H218.59l-12.87-7.44a7.47,7.47,0,0,0-6.7.28L186.63,124H175.74v4.45h0a1.93,1.93,0,0,0,1.15,1.8l22.6,13a7.44,7.44,0,0,0,6.7-.28l21.65-12.49A2.67,2.67,0,0,0,229.48,128.18Z"/><path class="cls-16" d="M205.72,116.52a6.11,6.11,0,0,0-3.11-.66v28.07a7.65,7.65,0,0,0,3.59-1l21.65-12.49a2.67,2.67,0,0,0,1.63-2.31V124H218.59Z"/><path class="cls-6" d="M199.5,138.8l-22.6-13.05c-1.72-1-1.51-2.72.48-3.87L199,109.39a7.44,7.44,0,0,1,6.7-.28l22.61,13c1.72,1,1.5,2.72-.48,3.87L206.2,138.52A7.44,7.44,0,0,1,199.5,138.8Z"/><path class="cls-11" d="M199.5,138.8l-22.6-13.05c-1.72-1-1.51-2.72.48-3.87L199,109.39a7.44,7.44,0,0,1,6.7-.28l22.61,13c1.72,1,1.5,2.72-.48,3.87L206.2,138.52A7.44,7.44,0,0,1,199.5,138.8Z"/><path class="cls-8" d="M200.11,135.92,181.89,125.4c-1.38-.8-1.21-2.19.39-3.12l17.44-10.06a6,6,0,0,1,5.4-.23l18.21,10.52c1.39.8,1.21,2.19-.39,3.12l-17.43,10.06A6,6,0,0,1,200.11,135.92Z"/><path class="cls-4" d="M182.28,123.65l17.44-10.07a6,6,0,0,1,5.4-.22l18.21,10.51a2,2,0,0,1,.74.69,1.45,1.45,0,0,0-.74-2L205.12,112a6,6,0,0,0-5.4.23l-17.44,10.06c-1.2.7-1.6,1.66-1.13,2.44A2.8,2.8,0,0,1,182.28,123.65Z"/><path class="cls-11" d="M200.26,138.8l-22.61-13.05c-1.71-1-2.12-2.45.49-3.87l21.64-12.49a7.6,7.6,0,0,1,3.39-.94,7.84,7.84,0,0,0-4.15.94l-21.64,12.49c-2,1.15-2.2,2.88-.48,3.87l22.6,13.05a6.15,6.15,0,0,0,3.31.66A5.62,5.62,0,0,1,200.26,138.8Z"/><path class="cls-11" d="M227.85,127.91l-21.65,12.5a7.47,7.47,0,0,1-6.7.28l-22.6-13a1.94,1.94,0,0,1-1.15-1.8h0v.92h0a1.93,1.93,0,0,0,1.15,1.8l22.6,13.05a7.44,7.44,0,0,0,6.7-.28l21.65-12.49a2.67,2.67,0,0,0,1.63-2.31v-.93A2.66,2.66,0,0,1,227.85,127.91Z"/><path class="cls-5" d="M118.7,195.42,100.48,184.9c-1.38-.8-1.21-2.19.39-3.12l17.44-10.07a6,6,0,0,1,5.4-.22L141.92,182c1.38.8,1.21,2.19-.39,3.11L124.1,195.19A6,6,0,0,1,118.7,195.42Z"/><path class="cls-6" d="M148.07,175.17V171H137.18l-12.87-7.43a7.44,7.44,0,0,0-6.7.28L105.22,171H94.33v4.46h0a2,2,0,0,0,1.16,1.8l22.6,13a7.44,7.44,0,0,0,6.7-.28l21.65-12.5A2.66,2.66,0,0,0,148.07,175.17Z"/><path class="cls-11" d="M148.07,175.17V171H137.18l-12.87-7.43a7.44,7.44,0,0,0-6.7.28L105.22,171H94.33v4.46h0a2,2,0,0,0,1.16,1.8l22.6,13a7.44,7.44,0,0,0,6.7-.28l21.65-12.5A2.66,2.66,0,0,0,148.07,175.17Z"/><path class="cls-16" d="M124.31,163.52a6,6,0,0,0-3.11-.66v28.06a7.64,7.64,0,0,0,3.59-.94l21.65-12.5a2.66,2.66,0,0,0,1.63-2.31V171H137.18Z"/><path class="cls-6" d="M118.09,185.8l-22.6-13.05c-1.72-1-1.51-2.73.48-3.87l21.64-12.5a7.47,7.47,0,0,1,6.7-.28l22.61,13.06c1.72,1,1.5,2.72-.48,3.87l-21.65,12.49A7.44,7.44,0,0,1,118.09,185.8Z"/><path class="cls-11" d="M118.09,185.8l-22.6-13.05c-1.72-1-1.51-2.73.48-3.87l21.64-12.5a7.47,7.47,0,0,1,6.7-.28l22.61,13.06c1.72,1,1.5,2.72-.48,3.87l-21.65,12.49A7.44,7.44,0,0,1,118.09,185.8Z"/><path class="cls-8" d="M118.7,182.91,100.48,172.4c-1.38-.8-1.21-2.2.39-3.12l17.44-10.07a6,6,0,0,1,5.4-.22l18.21,10.52c1.38.79,1.21,2.19-.39,3.11L124.1,182.69A6,6,0,0,1,118.7,182.91Z"/><path class="cls-4" d="M100.87,170.64l17.44-10.06a6,6,0,0,1,5.4-.23l18.21,10.52a2.05,2.05,0,0,1,.74.68,1.44,1.44,0,0,0-.74-2L123.71,159a6,6,0,0,0-5.4.22l-17.44,10.07c-1.2.7-1.6,1.66-1.13,2.43A2.94,2.94,0,0,1,100.87,170.64Z"/><path class="cls-11" d="M118.85,185.8,96.24,172.75c-1.71-1-2.12-2.45.49-3.87l21.64-12.5a7.59,7.59,0,0,1,3.39-.93,7.83,7.83,0,0,0-4.15.93L96,168.88c-2,1.14-2.2,2.88-.48,3.87l22.6,13.05a6.23,6.23,0,0,0,3.31.66A5.75,5.75,0,0,1,118.85,185.8Z"/><path class="cls-11" d="M146.44,174.91l-21.65,12.5a7.43,7.43,0,0,1-6.7.27l-22.6-13.05a2,2,0,0,1-1.16-1.79h0v.92h0a2,2,0,0,0,1.16,1.8l22.6,13.05a7.44,7.44,0,0,0,6.7-.28l21.65-12.5a2.66,2.66,0,0,0,1.63-2.31v-.92A2.67,2.67,0,0,1,146.44,174.91Z"/><path class="cls-27" d="M142.51,173.68c.25.14.25.37,0,.52a1,1,0,0,1-.89,0c-.25-.15-.25-.38,0-.52A1,1,0,0,1,142.51,173.68Z"/><path class="cls-27" d="M143.9,172.88c.25.14.25.37,0,.51a1,1,0,0,1-.89,0c-.25-.14-.25-.37,0-.51A.94.94,0,0,1,143.9,172.88Z"/><path class="cls-27" d="M145.29,172.07c.25.15.25.38,0,.52a1,1,0,0,1-.89,0c-.25-.14-.25-.37,0-.52A1,1,0,0,1,145.29,172.07Z"/><path class="cls-30" d="M182.3,101.73a.79.79,0,0,1,0,1.49,2.82,2.82,0,0,1-2.59,0,.79.79,0,0,1,0-1.49A2.88,2.88,0,0,1,182.3,101.73Z"/><path class="cls-31" d="M186.32,99.41a.79.79,0,0,1,0,1.49,2.86,2.86,0,0,1-2.58,0,.78.78,0,0,1,0-1.49A2.86,2.86,0,0,1,186.32,99.41Z"/><path class="cls-27" d="M190.34,97.09a.78.78,0,0,1,0,1.49,2.86,2.86,0,0,1-2.58,0,.79.79,0,0,1,0-1.49A2.8,2.8,0,0,1,190.34,97.09Z"/><path class="cls-27" d="M224.11,126.54a.27.27,0,0,1,0,.52,1,1,0,0,1-.89,0,.27.27,0,0,1,0-.52A1,1,0,0,1,224.11,126.54Z"/><path class="cls-27" d="M225.5,125.74c.25.14.25.37,0,.51a.94.94,0,0,1-.89,0c-.25-.14-.25-.37,0-.51A1,1,0,0,1,225.5,125.74Z"/><path class="cls-27" d="M226.89,124.94c.25.14.25.37,0,.51a1,1,0,0,1-.89,0c-.25-.14-.25-.37,0-.51A.94.94,0,0,1,226.89,124.94Z"/></g></g></g></svg>