<svg xmlns="http://www.w3.org/2000/svg" xmlns:xlink="http://www.w3.org/1999/xlink" viewBox="0 0 412.89 336.85"><defs><style>.cls-1,.cls-2{fill:#edeff4;}.cls-2{opacity:0.75;}.cls-3{fill:#ebeff7;}.cls-4{fill:#00301c;}.cls-5{fill:#00ff9c;}.cls-6{fill:#00995b;}.cls-7{fill:#666;}.cls-8{fill:#005633;}.cls-9{fill:#005432;}.cls-10{fill:#009b5c;}.cls-11{fill:#00aa65;}.cls-12{fill:#afafaf;}.cls-13{fill:#878787;}.cls-14,.cls-28,.cls-44,.cls-45,.cls-46{fill:none;stroke:#008c53;stroke-miterlimit:10;}.cls-15{fill:#ebf0f2;}.cls-16{fill:url(#linear-gradient);}.cls-17{fill:url(#linear-gradient-2);}.cls-18{fill:#d0d1d8;}.cls-19{fill:#a7b3c6;}.cls-20{fill:url(#linear-gradient-3);}.cls-21{fill:url(#linear-gradient-4);}.cls-22{fill:url(#linear-gradient-5);}.cls-23{fill:url(#linear-gradient-6);}.cls-24{fill:url(#linear-gradient-7);}.cls-25{fill:url(#linear-gradient-8);}.cls-26{fill:#939393;}.cls-27{fill:#777;}.cls-28,.cls-44,.cls-45,.cls-46{stroke-linecap:round;}.cls-28{stroke-width:1px;}.cls-29{fill:#c6c6c6;}.cls-30{fill:#888;}.cls-31{fill:#e0e3ea;}.cls-32{fill:#ced1d8;}.cls-33{fill:#d9e0e2;}.cls-34{fill:#242528;}.cls-35{fill:#ccd2db;}.cls-36{fill:#606060;}.cls-37{fill:#003f25;}.cls-38{fill:url(#linear-gradient-9);}.cls-39{fill:url(#linear-gradient-10);}.cls-40{fill:#00b76c;}.cls-41{fill:url(#linear-gradient-11);}.cls-42{fill:#a7a7a8;}.cls-43{fill:#7f7f7f;}.cls-44,.cls-45,.cls-46{stroke-width:1.6px;}.cls-45{stroke-dasharray:4.88 5.86;}.cls-46{stroke-dasharray:5.01 6.01;}</style><linearGradient id="linear-gradient" x1="269.84" y1="189.09" x2="250.41" y2="202.65" gradientUnits="userSpaceOnUse"><stop offset="0" stop-color="#e1e1e1"/><stop offset="1" stop-color="#fff"/></linearGradient><linearGradient id="linear-gradient-2" x1="280.28" y1="221.74" x2="279.13" y2="158.23" xlink:href="#linear-gradient"/><linearGradient id="linear-gradient-3" x1="323.13" y1="199.81" x2="263.97" y2="242.15" gradientUnits="userSpaceOnUse"><stop offset="0" stop-color="#dfe1e5"/><stop offset="1" stop-color="#f3f3f3"/></linearGradient><linearGradient id="linear-gradient-4" x1="285.81" y1="154.6" x2="286.84" y2="233.14" gradientUnits="userSpaceOnUse"><stop offset="0" stop-color="#b9bec6"/><stop offset="1" stop-color="#b9bec6" stop-opacity="0"/></linearGradient><linearGradient id="linear-gradient-5" x1="366.39" y1="256.37" x2="317.43" y2="223.22" xlink:href="#linear-gradient-4"/><linearGradient id="linear-gradient-6" x1="292.4" y1="176.15" x2="277.61" y2="228.17" xlink:href="#linear-gradient-3"/><linearGradient id="linear-gradient-7" x1="307.43" y1="193.91" x2="287.17" y2="191.51" xlink:href="#linear-gradient"/><linearGradient id="linear-gradient-8" x1="323.83" y1="201.69" x2="268.36" y2="185.24" gradientUnits="userSpaceOnUse"><stop offset="0" stop-color="#bccace"/><stop offset="1" stop-color="#bccace" stop-opacity="0"/></linearGradient><linearGradient id="linear-gradient-9" x1="140.3" y1="138.17" x2="140.5" y2="138.6" gradientUnits="userSpaceOnUse"><stop offset="0" stop-color="#f9a82c"/><stop offset="1" stop-color="#faa72c" stop-opacity="0"/></linearGradient><linearGradient id="linear-gradient-10" x1="150.11" y1="138.37" x2="150.31" y2="138.8" xlink:href="#linear-gradient-9"/><linearGradient id="linear-gradient-11" x1="150.11" y1="138.17" x2="150.31" y2="138.6" xlink:href="#linear-gradient-9"/></defs><g id="Layer_2" data-name="Layer 2"><g id="OBJECTS"><path class="cls-1" d="M368.76,303.28c-11.62-.4-34.05,4-30.85,13.22s12,4.41,18.23,2.41,25,10,32.25,3-6-17.83-21.63-17.22"/><path class="cls-1" d="M270.2,308.09s-22-1.2-21.83,2,11.82,7.22,21.83,9.62,12.42,8.41,32.05,7.61,10.62-24,10.62-24-7.81-1.2-17.83,3.41-23.43,4.61-27.84-2Z"/><path class="cls-1" d="M19.2,308.09s-1.4,6.81,4.21,8.82,16.42,9.21,31.65,7.61-3-16.43-3-16.43Z"/><path class="cls-1" d="M175.45,26.64c-19-3.72-49.08-3.81-44.47,4S166,62.1,179.66,55.89,193.88,30.24,175.45,26.64Z"/><path class="cls-2" d="M333.3,221.35c-34.05,27.74-156,53.69-231.77.8s-73.92-123.8-75.32-134S28,26,78.5,26.64s66.79,76.88,121.79,38.46c52.48-36.66,68.11-32.45,86.14-12,6.42,7.28,17.05,17.35,30.25,18.23,17.22,1.15,31.05-.8,50.08-6.21C391.77,58,472.73,107.77,333.3,221.35Z"/><polygon class="cls-3" points="360.9 163.97 366.69 158.49 378.34 163.97 376.31 219.49 366.63 219.49 360.9 163.97"/><path class="cls-4" d="M353.64,311.3a6.87,6.87,0,0,1-2.34.7l-9.46-2.28c3.1-.93,5.56-2.5,6.33-3.64a10.19,10.19,0,0,0,.74-3.52c.12-1.31.15-2.47.15-2.47l5.09-.76s0,1.38,0,3.21C354.2,306,354.14,311,353.64,311.3Z"/><path class="cls-5" d="M354.19,302.54a19.59,19.59,0,0,1-5.28,0c.12-1.31.15-2.47.15-2.47l5.09-.76S354.18,300.71,354.19,302.54Z"/><path class="cls-4" d="M387.38,311.55s-6.87,2.29-8.4,2-.51-3.9-.25-5.94a33.38,33.38,0,0,0-.09-4.78c-.13-1.86-.3-3.49-.3-3.49h5.22s.08,1.62.19,3.31c.09,1.41.21,2.86.32,3.44C384.33,307.35,387.38,311.55,387.38,311.55Z"/><path class="cls-5" d="M383.75,302.64c-1.36.1-3.13.16-5.11.18-.13-1.86-.3-3.49-.3-3.49h5.22S383.64,301,383.75,302.64Z"/><path class="cls-6" d="M385.22,215v44.82c0,3.57-.76,40.75-.76,40.75h-6.37s-3.82-33.49-3.95-39.35-2.67-31.7-2.67-31.7l-.06.18-8.22,27.83a108.48,108.48,0,0,0-2.67,13.63c-1.15,8.27-6,29.41-6,29.41h-6.36l2.8-41.26,4.45-44.82a136.11,136.11,0,0,0,24.79.89C381.88,215.32,383.55,215.19,385.22,215Z"/><path class="cls-7" d="M351.35,312.06s-3.15-4.2-7.44-3.06-3.27,2.68-2.52,3.06A19.26,19.26,0,0,0,351.35,312.06Z"/><path class="cls-7" d="M387.13,313.21c-1,.2-8.53.63-8.91,0s.25-2.68,2.42-3.06,6.49,1,7.13,1.66S387.77,313.08,387.13,313.21Z"/><path class="cls-8" d="M385.22,215v44.82c0,3.57-.76,40.75-.76,40.75h-1.68a137.41,137.41,0,0,0-.11-20.88c-1-11.72-1.65-16.05,0-29.93,1.32-11.08-1.33-28-2.46-34.38C381.88,215.32,383.55,215.19,385.22,215Z"/><path class="cls-8" d="M371.41,229.73l-8.22,27.83a108.48,108.48,0,0,0-2.67,13.63c-1.15,8.27-6,29.41-6,29.41h-2a145.36,145.36,0,0,0,4.18-20.88c1.25-8.77-.45-9.37,2.16-22.16,1.27-6.24,5.6-12.1,6.88-19.48a87.73,87.73,0,0,1,4.33-16.68Z"/><path class="cls-7" d="M396.17,232s.89,8.27.64,8.78-7.49,3.1-8.41.64c-1.27-3.44,0-22.29,0-22.29s-.12-6.49,1.28-6.23S396.17,232,396.17,232Z"/><path class="cls-9" d="M389.42,225.09s-.76-8.91,0-10.06,1.78-1,3.31,5.86,1.79,12.22,2.8,12.73a8.93,8.93,0,0,0,2.68.64s-6.11-24.32-7.77-24.32-3.69,1.91-3.31,14.64C387.13,224.58,387.51,229.29,389.42,225.09Z"/><path class="cls-5" d="M372.74,149.32l-.15,4.46-.1,2.94-.13,4.06c-5,7.26-8.53,0-8.53,0l-.5-4.66-.17-1.53-.1-.94Z"/><path class="cls-10" d="M372.59,153.78l-.1,2.94c-1.26,1.59-2.91,3.3-4.21,3.3-1.69,0-3.83-2.44-4.95-3.9l-.17-1.53C365.48,153.19,370.05,153.48,372.59,153.78Z"/><path class="cls-9" d="M359.12,145.62s-1.2-4.41-.72-6.56a1.68,1.68,0,0,1,2.5-1.19,3.3,3.3,0,0,1,.48-3.69c1.55-1.79,7.86-2.62,11.56-1.08s1.43,4.89,1.43,4.89,4.65-1.19,1.43,7l-7.15,3-9.53-2.26Z"/><path class="cls-5" d="M361.26,145.5s-1.79-1.91-2.38-.72.71,5.6,3.57,5.36Z"/><path class="cls-5" d="M373.75,145.5s1.79-1.91,2.38-.72-.71,5.6-3.57,5.36Z"/><path class="cls-5" d="M374.13,145h0c0,.27-.48,7.88-.83,9.29a7.84,7.84,0,0,1-3.66,3.89,2.84,2.84,0,0,1-1.11.28,6,6,0,0,1-3.88-1.8,8.62,8.62,0,0,1-1.48-1.78c-1-1.55-2.27-9.89-2.27-9.89a8,8,0,0,0,1.29-4.26c0-.35,0-.71,0-1.1,0,0,6.44-2.5,10.73.12v.05A11.25,11.25,0,0,0,374.13,145Z"/><path class="cls-11" d="M374.13,145c0,.27-.48,7.88-.83,9.29a7.84,7.84,0,0,1-3.66,3.89C372.79,156.08,374.09,145.3,374.13,145Z"/><path class="cls-11" d="M372.94,139.78v.05c-4.41-1-9.15.37-10.75.93,0-.35,0-.71,0-1.1C362.21,139.66,368.65,137.16,372.94,139.78Z"/><path class="cls-12" d="M368.67,216.56a40.14,40.14,0,0,1-6.36-.39,27.8,27.8,0,0,1-6.63-1.65l-1.28-32.47s-2,6.53-2.63,9.3a5.11,5.11,0,0,0-.17,1.14c.13,1,1.66,8.15,1.66,8.15l-7.39,2.8s-3.69-7.26-3.69-9.67,5.35-25.73,6.49-27.51,15.16-5.48,15.16-5.48Z"/><path class="cls-12" d="M385.19,193.38a7.72,7.72,0,0,0,0-1.78c-.25-1.27-2-6.75-2-6.75.26,3.06,2,32.34,2,32.34-1.68.05-3.65,0-5.45-.14-3.11-.19-5.76-.49-5.76-.49l-1.4-55.78a48.49,48.49,0,0,1,15.16,4.33c.76.51,6.11,25.6,6.11,26.62s-2.17,8.4-2.17,8.4l-7.19-2-.06,0s0-.07,0-.21c.12-.66.5-2.75.68-4.39h0v-.09Z"/><path class="cls-13" d="M362.31,216.17a27.8,27.8,0,0,1-6.63-1.65l-1.28-32.47s-2,6.53-2.63,9.3l-1.69,5,5.34-23.94A61.7,61.7,0,0,1,357,192.24C356.26,201.15,362.18,208,362.31,216.17Z"/><path class="cls-14" d="M384.46,198.09s0-.07,0-.21a1.79,1.79,0,0,0,0,.23Z"/><path class="cls-14" d="M385.19,193.39a.23.23,0,0,0,0,.07Z"/><path class="cls-13" d="M383.18,184.85c.26,3.06,2,32.34,2,32.34-1.68.05-3.65,0-5.45-.14,3.17-6.29,2.15-19.18,1.12-25.45-1.15-7,0-20.88,0-20.88s4.71,17.7,4.71,18.33-.34,3.71-.41,4.33a7.72,7.72,0,0,0,0-1.78C385,190.33,383.18,184.85,383.18,184.85Z"/><path class="cls-5" d="M359.88,220a4,4,0,0,1-.81,1.39,7.89,7.89,0,0,1-2.5,1.79c-3.57-5.6-10.7-19.74-10.7-19.74l5.05-1.91,2.34-.89c.31.72,1.46,5,2.93,9.68S359.88,220,359.88,220Z"/><path class="cls-11" d="M359.88,220a4,4,0,0,1-.81,1.39c-1-4.59-3.29-6-4.54-11.2a30.32,30.32,0,0,0-3.61-8.66l2.34-.89c.31.72,1.46,5,2.93,9.68S359.88,220,359.88,220Z"/><path class="cls-7" d="M354.4,202.93s-7.76,2.8-8.14,3.06-2.55-4.08-2.55-4.08l10.06-3.56S355,202.09,354.4,202.93Z"/><path class="cls-9" d="M378.34,161.42s-1.53,37.59,8.85,46.93l-1.59,3.5s-12.09-12.11-10.18-50.69C375.42,161.16,376.43,160.53,378.34,161.42Z"/><path class="cls-5" d="M390.06,221.52c.25.77.51,5.1-.64,5.61a10.74,10.74,0,0,1-3.82.25s4.33,4.71,3.69,4.84-4.58-3.31-4.83-4.07-1.91-7.14-1.79-10.45,1.79-19.86,1.79-19.86l4.47,1.41,2.78.88c-.82,2.57-5.22,17.83-5.22,17.83l0,.06c.89,2.07,2.27,7.07,2.27,7.07S389.8,220.76,390.06,221.52Z"/><path class="cls-11" d="M386.49,218l0,.06-1.3,1.47c1.53-4,.76-8.15,2.55-13a18.83,18.83,0,0,0,1.16-7.25l2.78.88C390.89,202.7,386.49,218,386.49,218Z"/><path class="cls-7" d="M383.44,197l10.06,2.8a34.21,34.21,0,0,1-1.79,3.95,59.64,59.64,0,0,1-8.15-2.17C383.44,201.28,383.44,197,383.44,197Z"/><path class="cls-4" d="M270.12,308a6.76,6.76,0,0,1-.4,1.85s-13.13.38-17.85,0-2.16-5.23-.38-6.25a2.06,2.06,0,0,1,.71-.24c2-.36,5.11,1.08,6.69.63a28.21,28.21,0,0,0,5.22-2.81l5.27.53A20.26,20.26,0,0,1,270.12,308Z"/><path class="cls-15" d="M270.12,308a6.76,6.76,0,0,1-.4,1.85s-13.13.38-17.85,0-2.16-5.23-.38-6.25a2.06,2.06,0,0,1,.71-.24c1,.27,2.18,1.57,3.12,5.22C255.32,308.56,265.21,308.89,270.12,308Z"/><path class="cls-4" d="M309.83,312.37s-8.29.12-9.43,0c-.94-.11-.18-2.68.83-4.39h0a6.08,6.08,0,0,1,.7-1,3.63,3.63,0,0,1,3.18-1s1.29-4,0-6.58l5.35-2.47a37,37,0,0,1,2,5.15,11,11,0,0,1,.29,1.35C313.15,306,309.83,312.37,309.83,312.37Z"/><path class="cls-15" d="M309.83,312.37s-8.29.12-9.43,0c-.94-.11-.18-2.68.83-4.39h0c3.9-5.28,8.09,1.58,8.09,1.58,1.62-2,2.67-5.54,3.15-7.47a11,11,0,0,1,.29,1.35C313.15,306,309.83,312.37,309.83,312.37Z"/><path class="cls-6" d="M273.24,255c-.13,2.06-.33,4.41-.67,6.84-1,7.39-3.3,39.71-3.3,39.71a5.38,5.38,0,0,1-6.23,0l-2-45.39-.16-3.88,12.49-4.46S273.5,250.8,273.24,255Z"/><path class="cls-6" d="M310.45,296.9c-.64,2.3-5.26,2.57-5.26,2.57s-21.95-41.58-23.22-44a20.08,20.08,0,0,1-1.05-2.44c-.79-2.18-1.38-4.45-1.38-4.45l.77.26,14-6.89.08,9.86,0,2.94a65.94,65.94,0,0,1,5.76,14.11C302.24,276.51,310.45,296.9,310.45,296.9Z"/><path class="cls-8" d="M273.42,247.82s.08,3-.18,7.18l-12.15,1.16-.16-3.88Z"/><path class="cls-8" d="M294.42,251.81,280.92,253c-.79-2.18-1.38-4.45-1.38-4.45l.77.26,14-6.89Z"/><path class="cls-5" d="M255.38,200.45s-2.29,2.68-2.68,2.93-6.74.93-7,1.31,4.23,1.14,4.23,1.14-3.46,2.28-3.59,2.91.83,7,3,6.75,6.75-8.65,6.75-8.65l2.31-2.53Z"/><path class="cls-16" d="M264.75,200.77l-6.88,4.84-4.08-4.84s9.56-11,10.2-12.12a51,51,0,0,0,1.91-5Z"/><path class="cls-12" d="M285.4,162.69s5.49,1.73,7.28,2.25c4.65,1.33,5.29,3.63,5.61,8.67s-8.42,32-8.42,32L263.6,205s1.15-11.34,1.28-14-1.66-20.53-1.28-22.06,4.69-4.85,9.61-5.93Z"/><path class="cls-13" d="M288.15,173.16s-.38,13.9-1.27,16.32-4.47,14-4.47,14l7.94.6,5.2-14.63Z"/><path class="cls-9" d="M287.19,147.47a12,12,0,0,0,1.15-6.63s2.81-2.94-2.29-5.87-11.35-2-13.39-.76-1.28,3.95-1.28,3.95-3.06,5.48,1.41,9.69l12.49,1.78Z"/><polygon class="cls-17" points="274.72 162.45 271.51 163.53 275.97 189.55 286.94 163.02 284.01 162.39 274.72 162.45"/><polygon class="cls-18" points="279.03 164.94 275.92 189.24 279.8 164.94 279.03 164.94"/><path class="cls-5" d="M286.56,151.67a1,1,0,0,1-1.53-.51c-.64,3.19-1,10-1,10s-2.43,3.95-4.47,3.83-3.69-2.94-3.69-2.94l.22-1.08.41-2a3.07,3.07,0,0,1-1.92.12,5,5,0,0,1-.95-.34h0a6.38,6.38,0,0,1-.69-.4c-1.58-1.09-.64-11.18-.16-15.48.13-1.18.23-1.93.23-1.93.57,1,1.72,1.34,5.29,1.08a16.62,16.62,0,0,1,5.61.39s0,.08,0,.12a12.07,12.07,0,0,0,.42,6.76s1.15-3.19,2.55-3.06S287.58,151,286.56,151.67Z"/><path class="cls-11" d="M283.88,142.37s0,.08,0,.12a50.71,50.71,0,0,0-7.36.64,6.51,6.51,0,0,1-3.73-.3c.13-1.18.23-1.93.23-1.93.57,1,1.72,1.34,5.29,1.08A16.62,16.62,0,0,1,283.88,142.37Z"/><path class="cls-11" d="M280.82,156.14s-1.23,4.25-4.75,4.78l.41-2a3.07,3.07,0,0,1-1.92.12C275.71,159.25,277.85,159,280.82,156.14Z"/><path class="cls-19" d="M276.1,161a4.51,4.51,0,0,0-1.53,1.79c-.38,1,3.06,6.12,3.06,6.12l1.41-4A5.86,5.86,0,0,1,276.1,161Z"/><path class="cls-19" d="M284,161a3.94,3.94,0,0,1,1,1.92c.12,1-4.21,6-4.21,6l-1-3.95A15,15,0,0,0,284,161Z"/><path class="cls-20" d="M322.94,195.78l8.46,39.92a4,4,0,0,1-1,3.53,3.82,3.82,0,0,1-1.53,1.05,3.28,3.28,0,0,1-.61.18l-66.86,14.16a3.87,3.87,0,0,1-.95.09,4.1,4.1,0,0,1-1.73-.44,4.05,4.05,0,0,1-2.09-2.74l-8.45-39.92a4,4,0,0,1,3.1-4.76l66.86-14.16a4,4,0,0,1,3.75,1.17A3.92,3.92,0,0,1,322.94,195.78Z"/><path class="cls-21" d="M322.94,195.78l1.94,9.16c-8.86,7.19-30,24.17-32.38,25-2.75.94-37.8-15.14-44.23-18.1l-.05-.22a4,4,0,0,1,3.1-4.76l66.86-14.16a4,4,0,0,1,3.75,1.17A3.92,3.92,0,0,1,322.94,195.78Z"/><path class="cls-22" d="M321,242l5.61-29,4.81,22.67a4,4,0,0,1-1,3.53,3.82,3.82,0,0,1-1.53,1.05,3.28,3.28,0,0,1-.61.18Z"/><path class="cls-23" d="M321.93,193.86l-29.65,29.76a4.52,4.52,0,0,1-.89.69,3.82,3.82,0,0,1-.64.32,4.5,4.5,0,0,1-2,.31,3.12,3.12,0,0,1-.44-.05,4.24,4.24,0,0,1-.91-.25l-8-3.14h0l-1.54-.6-29.47-11.55a4,4,0,0,1,2.93-2.5l66.86-14.16A4,4,0,0,1,321.93,193.86Z"/><path class="cls-5" d="M248.43,209.31s2.55.51,3.7.64.51.76-.77.89-.21,4.14-2.27,4.87C249.09,215.71,246.65,211.73,248.43,209.31Z"/><path class="cls-5" d="M286.43,215.56s-.64.73-1.35,1.59c-.47.58-1,1.21-1.33,1.72-.89,1.28-1.15,5-2.17,5.36s-3.95-.13-4.46.25-2.68,1.28-3.06,1,1.79-1.53,2.81-2.8,2.29-3.7,1.27-3.57-3.44.89-2.68.25,4.08-2.42,4.47-2.8c.19-.2.75-.88,1.24-1.51s.92-1.17.92-1.17Z"/><path class="cls-11" d="M286.43,215.56s-.64.73-1.35,1.59l-3.91-2.08c.49-.61.92-1.17.92-1.17Z"/><path class="cls-24" d="M299.69,190.82c-.38,2.42-2.55,7.65-6.38,14.15s-6.37,11.61-6.37,11.61l-3-1.34-3-1.34s2.49-5.15,4.59-9.56c2.42-5.1,4.84-12.12,4.84-15.05s-3.44-12.75-1.91-17.85a5.7,5.7,0,0,1,6.12-4.14,3.59,3.59,0,0,1,2.93,1.59C298.8,171.31,300.07,188.4,299.69,190.82Z"/><path class="cls-25" d="M299.69,190.82c-.38,2.42-2.55,7.65-6.38,14.15s-6.37,11.61-6.37,11.61l-3-1.34c10.12-9,11.93-22.85,13.39-28.69,1.53-6.12-2.74-19.25-2.74-19.25a3.59,3.59,0,0,1,2.93,1.59C298.8,171.31,300.07,188.4,299.69,190.82Z"/><rect class="cls-26" x="122.57" y="182.69" width="20.83" height="109.78"/><rect class="cls-27" x="122.57" y="182.69" width="6.81" height="109.78"/><path class="cls-27" d="M160.51,275.84s-4.61-34.46-9.82-35.26-7.81,8-5.8,35.26l8.81,14.42Z"/><path class="cls-27" d="M150.69,292.47A177.7,177.7,0,0,0,155.3,269c2.26-17.81.23-31.83,8-43.67,3.45-5.24,7.13-6.27,9-6.21,3.42.1,7.21,2.4,8,8.41,2.64,19.78-16.42,64.91-16.42,64.91Z"/><path class="cls-5" d="M160.51,292.47s2.79-40,17.83-49.08,16.61,5.43,8.21,19.43c-13.22,22-12.62,29.65-12.62,29.65Z"/><path class="cls-5" d="M174.08,282s13.07-17,20.48-15.4-2.8,25.85-2.8,25.85H166.44Z"/><path class="cls-5" d="M194.55,292.47S200,277,206.38,277s3.41,15.43,3.41,15.43Z"/><path class="cls-5" d="M157.31,292.47s-1-21.64-6.62-31.65-15.51-5.75-12.42,5.6a238,238,0,0,1,5.41,26.05Z"/><line class="cls-28" x1="206.18" y1="283.25" x2="203.02" y2="292.47"/><path class="cls-28" d="M193.16,271.63s-7.57,10.22-9.29,20.84"/><path class="cls-28" d="M184.58,249a156.07,156.07,0,0,0-18.06,43.43"/><path class="cls-28" d="M144.89,265s5.6,17,5.8,27.45"/><path class="cls-27" d="M102.13,275.84s4.61-34.46,9.82-35.26,7.81,8,5.81,35.26l-8.82,14.42Z"/><path class="cls-27" d="M112,292.47A177.7,177.7,0,0,1,107.34,269c-2.25-17.81-.23-31.83-8-43.67-3.44-5.24-7.13-6.27-9-6.21-3.41.1-7.21,2.4-8,8.41-2.64,19.78,16.43,64.91,16.43,64.91Z"/><path class="cls-27" d="M78.9,292.47s1.4-44.88-8.62-56.7S51.63,239,56.46,251.2c7.21,18.23,10.22,41.27,10.22,41.27Z"/><path class="cls-7" d="M203.88,88.15a38.26,38.26,0,0,0-37.24,38.25v56.29H78.5V126.4a38.25,38.25,0,0,1,38.26-38.26h87.12Z"/><path class="cls-29" d="M241.16,126.4v56.29H166.64V126.4a38.27,38.27,0,0,1,33.65-38c1.18-.14,2.38-.23,3.59-.26h0A38.27,38.27,0,0,1,241.16,126.4Z"/><path class="cls-27" d="M233.94,126.4v56.29h-67.3V126.4a38.27,38.27,0,0,1,33.65-38A38.27,38.27,0,0,1,233.94,126.4Z"/><path class="cls-12" d="M203.88,88.15c-1.21,0-2.41.12-3.59.26a38.27,38.27,0,0,0-33.65,38v30.65H78.5V126.4a38.25,38.25,0,0,1,38.26-38.26h87.12Z"/><path class="cls-30" d="M108.94,169.67a3.61,3.61,0,1,1-3.6-3.61A3.6,3.6,0,0,1,108.94,169.67Z"/><path class="cls-30" d="M122.57,169.67a3.61,3.61,0,1,1-3.61-3.61A3.61,3.61,0,0,1,122.57,169.67Z"/><path class="cls-30" d="M134.59,169.67a3.61,3.61,0,1,1-3.61-3.61A3.61,3.61,0,0,1,134.59,169.67Z"/><path class="cls-29" d="M241.16,182.69v46.47a33.66,33.66,0,0,1-33.66,33.66h-7.21a33.65,33.65,0,0,1-33.65-33.66V182.69Z"/><path class="cls-31" d="M241.16,182.69v46.47a33.64,33.64,0,0,1-33.66,33.66h-4.4a33.66,33.66,0,0,1-33.66-33.66V182.69Z"/><path class="cls-5" d="M102.13,292.47s-2.78-40-17.83-49.08-16.6,5.43-8.21,19.43c13.22,22,12.62,29.65,12.62,29.65Z"/><path class="cls-5" d="M88.56,282s-13.07-17-20.48-15.4,2.8,25.85,2.8,25.85H96.2Z"/><path class="cls-5" d="M68.1,292.47S62.67,277,56.26,277s-3.41,15.43-3.41,15.43Z"/><path class="cls-5" d="M105.34,292.47s1-21.64,6.61-31.65,15.52-5.75,12.42,5.6A238,238,0,0,0,119,292.47Z"/><line class="cls-28" x1="56.46" y1="283.25" x2="59.62" y2="292.47"/><path class="cls-28" d="M69.48,271.63s7.57,10.22,9.3,20.84"/><path class="cls-28" d="M78.07,249a156.24,156.24,0,0,1,18.05,43.43"/><path class="cls-28" d="M117.76,265s-5.61,17-5.81,27.45"/><path class="cls-13" d="M200.29,88.41a38.27,38.27,0,0,0-33.65,38v30.65H123.73c5.09-3.62,9.25-10.85,9.25-24.84v-9.48A34.33,34.33,0,0,1,167.3,88.41Z"/><path class="cls-27" d="M150.21,132.21h0a3.61,3.61,0,0,1-3.61-3.61V38.46h7.22V128.6A3.61,3.61,0,0,1,150.21,132.21Z"/><polygon class="cls-7" points="153.82 38.46 126.77 38.46 153.82 60.69 153.82 38.46"/><path class="cls-32" d="M223.05,259a33.47,33.47,0,0,1-15.55,3.8h-4.4a33.66,33.66,0,0,1-33.66-33.66V182.69h5.26Z"/><path class="cls-5" d="M36.32,299.09s-.62,3,0,4.57,4.81.86,4.81.86l-.37-5.18Z"/><path class="cls-33" d="M52.05,307.82a.68.68,0,0,1,0,.29c-.22.56-4.36.47-8.52.49s-8.65.13-8.52-.49c0-.17-.06-.34-.08-.52a19.44,19.44,0,0,1,.7-6h.61c.5,3.46,4.7,2.1,4.64,0h.67c-.12,2.22,2.07,3.38,5.69,3.7S52,307,52.05,307.82Z"/><path class="cls-13" d="M52.05,307.82a.68.68,0,0,1,0,.29c-.22.56-4.36.47-8.52.49s-8.65.13-8.52-.49c0-.17-.06-.34-.08-.52C39.73,307.55,48.6,307.74,52.05,307.82Z"/><path class="cls-5" d="M20.63,299.09s-.62,3,0,4.57,4.82.86,4.82.86l-.37-5.18Z"/><path class="cls-15" d="M36.32,308.11c-.23.56-4.36.47-8.53.49s-8.65.13-8.52-.49a9.32,9.32,0,0,1-.12-1.09,20.93,20.93,0,0,1,.74-5.46h.62c.86,3.09,4.57,2.35,4.63,0h.68c-.13,2.22,2.06,3.38,5.68,3.7,3.17.29,4.51,1.39,4.8,2.22A.92.92,0,0,1,36.32,308.11Z"/><path class="cls-4" d="M29.15,212.13c1.87,17.2,1.21,23.79,3.21,41.75,1.29,11.54.13,30.51,3,46.94h6.55c0-12.35.75-14.37,1.6-38.29.42-11.9.22-24.08,1-29.52a156.17,156.17,0,0,0,1.23-27.17Z"/><path class="cls-6" d="M33.23,233.63c-2.9,13.92-7.29,67.19-7.29,67.19h-6.3c-1.73-15.69-.05-29.43-1-41-1.36-16.92-4.2-33.35-2.22-47.68l6.84-.77,13.54-2.07A243,243,0,0,1,33.23,233.63Z"/><path class="cls-8" d="M21.74,270.43c-1.17,8.32-1.07,23.19.37,30.39H19.64c-1.73-15.69-.05-29.43-1-41-1.36-16.92-4.2-33.35-2.22-47.68l6.84-.77c-.59,3.25-4,23.24-2.89,36.59C21.62,262.53,23.1,260.8,21.74,270.43Z"/><path class="cls-3" d="M41,195.44a14.8,14.8,0,0,1-3.36.85c.25-.92.47-1.83.66-2.72a7.55,7.55,0,0,0,2.51-.83l.1.22-.38-10-.09-2.34-7.9-15.44H21.74l8.48,44.5.91,4.78a16,16,0,0,0,10.5-1.11ZM32.55,207a25.82,25.82,0,0,0,1.67-2.54c4,0,5.8-1.11,5.8-1.11l1,2.35A17.15,17.15,0,0,1,32.55,207Z"/><path class="cls-5" d="M34.83,171.13s-2.71,1.73-9,.86l1,2.72a17.47,17.47,0,0,0,9-1.24Z"/><path class="cls-5" d="M40.15,182s-2.72,1.73-9,.86l1,2.72a17.47,17.47,0,0,0,9-1.24Z"/><path class="cls-5" d="M38.25,193.57c-.19.89-.41,1.8-.66,2.72a19,19,0,0,1-4.85,0l-1-2.71A20.33,20.33,0,0,0,38.25,193.57Z"/><path class="cls-34" d="M41.75,195.09c-.26.13-.53.24-.8.35L40.86,193Z"/><path class="cls-5" d="M34.22,204.47A25.82,25.82,0,0,1,32.55,207L32,207l-1-2.72A24.57,24.57,0,0,0,34.22,204.47Z"/><path class="cls-5" d="M41,205.71a17.15,17.15,0,0,1-8.46,1.3,25.82,25.82,0,0,0,1.67-2.54c4,0,5.8-1.11,5.8-1.11Z"/><path class="cls-5" d="M41,195.44a14.8,14.8,0,0,1-3.36.85c.25-.92.47-1.83.66-2.72a7.55,7.55,0,0,0,2.51-.83l.1.22h0Z"/><path class="cls-35" d="M38.25,193.57a51.56,51.56,0,0,0,1-12.93l1.2,2.34.38,10-.1-.22A7.55,7.55,0,0,1,38.25,193.57Z"/><path class="cls-35" d="M41.63,213.37a16,16,0,0,1-10.5,1.11l-.91-4.78A24.53,24.53,0,0,0,32.55,207a17.15,17.15,0,0,0,8.46-1.3l-1-2.35s-1.78,1.14-5.8,1.11a34.57,34.57,0,0,0,3.37-8.18,14.8,14.8,0,0,0,3.36-.85Z"/><path class="cls-36" d="M46.57,209.91c-1.73,4.08-7.29,5.44-7.29,5.44s.58-9.65.7-18.54c.07-5.93-.06-11.53-.7-13.7a63.38,63.38,0,0,0-3.54-8.35c-2.48-5.08-5.23-10.06-5.23-10.06l.58-1.13,8.19,3.73s.3,2,.7,4.81c.72,5,1.78,12.55,2,14.7.19,1.69,1.35,7.58,2.46,13S46.57,209.91,46.57,209.91Z"/><path class="cls-37" d="M27.67,135.06c-4.45-7.53-11.12-4-12.35-2.1-6.55,10.25,6.42,23.35-.74,26.06,0,0,7.82,3.86,10.09-5.3a71.51,71.51,0,0,1,5.59-15.32Z"/><path class="cls-9" d="M38.79,149.51s2-3,1.48-8.4-4.08-6.67-5.81-5.06c0,0-4.69-4.57-10-.87-4.81,3.36-5.06,10-3.34,14.7s2.3,6.8,2.39,9.08l7.62-7.47Z"/><path class="cls-5" d="M39.28,146.79v.1c-.06,1.17-.71,12.79-4.69,13.49a4.2,4.2,0,0,1-2.74-.32,2.51,2.51,0,0,1-.72-.54,16.85,16.85,0,0,0-.11,3.21,11.41,11.41,0,0,0,.48,2.84s-4.2,3.46-9.76-1.36A50.12,50.12,0,0,0,25,151.74s-2.1-.87-1.73-3.83c.41-3.22,3.71-.87,3.34,1.85a15.44,15.44,0,0,0,8.15-10.5S35,142.47,39.28,146.79Z"/><path class="cls-11" d="M39.28,146.79v.1a12.47,12.47,0,0,1-5.49-4.78,15.12,15.12,0,0,0,.92-2.85S35,142.47,39.28,146.79Z"/><path class="cls-11" d="M31.85,160.06a2.51,2.51,0,0,1-.72-.54,16.85,16.85,0,0,0-.11,3.21,12.89,12.89,0,0,1-3.35-7.54A16.13,16.13,0,0,0,31.85,160.06Z"/><path class="cls-12" d="M32.49,215.84a31,31,0,0,1-5.32,0,37.9,37.9,0,0,1-14.57-4.17s2.34-6.17,4.3-11.76c.67-1.91,1.3-3.76,1.77-5.26a13.07,13.07,0,0,0,.85-3.48c-.05-.15-.25-.6-.57-1.26l-.06-.13c-2.42-5-10.87-21.61-10.12-22.58.39-.49,4.08-2.22,13.4-4,0,0,10.44,16.9,10.94,19.49S32.49,215.84,32.49,215.84Z"/><path class="cls-13" d="M18.67,194.62a13.07,13.07,0,0,0,.85-3.48c-.05-.15-.25-.6-.57-1.26l4.4,8.91Z"/><path class="cls-13" d="M27.17,215.81a37.9,37.9,0,0,1-14.57-4.17s2.34-6.17,4.3-11.76C17.76,204.4,20.21,211.83,27.17,215.81Z"/><path class="cls-5" d="M21.87,217.57c-1.24.62-2.18-1.36-2.57-3.21s-.4-2.47.47-2.1a5.79,5.79,0,0,1,0-2.35l-2.2-1.54-1.14-.81,3.71-3.33s.28.31.73.77l1,1c.5.5,1.06,1,1.6,1.54,1.26,1.17,2.1,4.94,2.35,6.55S23.1,217,21.87,217.57Z"/><path class="cls-12" d="M14.94,180.9S8.77,189.28,8.77,190,21.87,204,21.87,204l-5.81,5.93S-.27,191.25,0,190c1.49-6.55,8.9-21.87,8.9-21.87S14.44,173.75,14.94,180.9Z"/><path class="cls-13" d="M40,196.81c.07-5.93-.06-11.53-.7-13.7a63.38,63.38,0,0,0-3.54-8.35,54.35,54.35,0,0,1,1.51-6.26s1.13,1.34,2.73,3.61c.72,5,1.78,12.55,2,14.7.19,1.69,1.35,7.58,2.46,13A15.5,15.5,0,0,1,40,196.81Z"/><path class="cls-5" d="M42,167.55l-3,1.5-1.43.72-1.48-6.18s-1.24-.74-2.1-3.7c0,0-.31.46-.66.49s-.4-.1-.57-.49c-.5-1.11-.13-1.73.24-3s.74-2.1,2.23-2,2.35-.72,2.93,0c1.64,2,2.25,8.17,2.25,8.17Z"/><path class="cls-11" d="M39,169.05l-1.43.72-1.48-6.18s-1.24-.74-2.1-3.7c0,0-.31.46-.66.49a5.08,5.08,0,0,1,.29-.86l-.25-2.47a11.71,11.71,0,0,0,1.86,3.83,13.69,13.69,0,0,1,2.1,2.84C37.66,164.42,38.52,167.42,39,169.05Z"/><path class="cls-12" d="M35.21,166.8l8-1.6s4.7,21.37,5.31,24-.12,9-2,9.63-4.94-2.59-5.44-4.81S35.21,166.8,35.21,166.8Z"/><path class="cls-11" d="M21.87,206l-4.3,2.35,3.3-3.37Z"/><path class="cls-13" d="M36.32,308.11c-.23.56-4.36.47-8.53.49s-8.65.13-8.52-.49a9.32,9.32,0,0,1-.12-1.09c2.34.38,7.78,1,17.15.46A.92.92,0,0,1,36.32,308.11Z"/><polygon class="cls-38" points="140.34 138.36 140.34 138.36 140.34 138.14 140.34 138.36"/><path class="cls-5" d="M226.74,178.75a4,4,0,0,1-1.65,3.27,3.94,3.94,0,0,1-1.71.71,3.39,3.39,0,0,1-.64.06l-46.48.24V134.19l46.23-.24a4,4,0,0,1,4,4v2.42Z"/><polygon class="cls-39" points="150.15 138.56 150.15 138.56 150.15 138.34 150.15 138.56"/><path class="cls-40" d="M226.59,140.34l-.05,0c-10.16,5.28-34.22,24.55-36.72,24.86-1.16.15-6.82-3.41-13.56-8v-23l46.23-.24a4,4,0,0,1,4,4Z"/><path class="cls-5" d="M225.93,135.86,190.87,159a4.52,4.52,0,0,1-1,.5,3.88,3.88,0,0,1-.69.18,4.4,4.4,0,0,1-2-.1,2.16,2.16,0,0,1-.43-.14,5,5,0,0,1-.83-.42l-7.22-4.7-1.38-.9-1-.68V134.19l46.23-.24A4,4,0,0,1,225.93,135.86Z"/><polygon class="cls-41" points="150.15 138.36 150.15 138.36 150.15 138.14 150.15 138.36"/><path class="cls-42" d="M216.92,178.55a4,4,0,0,1-1.65,3.27,3.94,3.94,0,0,1-1.71.71,3.36,3.36,0,0,1-.63.06l-46.49.24V134l46.23-.24a4,4,0,0,1,4,4l0,2.42Z"/><polygon class="cls-38" points="140.34 138.36 140.34 138.36 140.34 138.14 140.34 138.36"/><path class="cls-43" d="M216.78,140.14l-.05,0C206.56,145.45,182.51,164.72,180,165c-1.15.15-6.81-3.41-13.56-8V134l46.23-.24a4,4,0,0,1,4,4Z"/><path class="cls-42" d="M216.12,135.66l-35.06,23.15a4.52,4.52,0,0,1-1,.5,4.39,4.39,0,0,1-.69.18,4.45,4.45,0,0,1-2-.1,2.3,2.3,0,0,1-.42-.14,4.31,4.31,0,0,1-.83-.42l-7.22-4.7-1.38-.9-1.05-.68V134l46.23-.24A4,4,0,0,1,216.12,135.66Z"/><path class="cls-44" d="M231.34,138.62a24.47,24.47,0,0,0,2.43-.57"/><path class="cls-45" d="M239.28,136.05c9.67-4.36,24-15.56,17.7-42.7-9.21-39.67-8-71.72,15.43-84.54,17.45-9.55,37-2.65,45.87,1.49"/><path class="cls-44" d="M320.9,11.6c1.41.74,2.19,1.22,2.19,1.22"/><polygon class="cls-5" points="324.95 14.7 319.08 21.95 347.73 32.65 334.79 4 328.75 11.77 336.34 21.09 324.95 14.7"/><polygon class="cls-5" points="15.95 27.51 24.75 30.58 25.13 0 2.55 21.88 11.9 24.93 18.1 14.63 15.95 27.51"/><path class="cls-46" d="M166.64,146.89s33.51-4.68,21.83-27.7C160.43,63.9,76,124.93,41.84,97,6.18,67.71,12.59,26.64,12.59,26.64"/><path class="cls-1" d="M306.46,38.46c-3.52-7.27-15.42-2.41-8.21,7.21S313.07,52.08,306.46,38.46Z"/><path class="cls-1" d="M347.93,43.07c-6-.79-23,3.87-23,13.82,0,5.61,13,10,26,3.8S364.75,45.27,347.93,43.07Z"/><path class="cls-1" d="M52.05,292.47s.6,10.41,22,10.41,40.66-2.4,63.5,16.83,78.93,22.44,93.75,8.81-20.83-36-20.83-36Z"/></g></g></svg>